<svg width="711" height="812" viewBox="0 0 711 812" fill="none" xmlns="http://www.w3.org/2000/svg">
<path d="M124 626C120 617.2 111.333 569.333 107.5 546.5C48 522.5 0 475 0 398.5C0 322 28.5 330 41 294.5C51 266.1 77.1667 228.333 89 213C95.1667 186.833 111.8 128.3 129 103.5C150.5 72.5 185.5 0 385.5 0C584.373 0 628.505 115.191 640.303 145.985L640.5 146.5C652 176.5 628.5 225 672.5 235.5C716.5 246 714 306 706.5 385.5C700.5 449.1 678.667 574.667 668.5 629.5C660.667 615.167 643.8 597.2 639 640C633 693.5 577 752 535 782.5C493 813 408.5 812 379.5 812C350.5 812 279 803.5 267 796C255 788.5 129 637 124 626Z" fill="#D9D9D9"/>
</svg>
