<svg width="2116" height="2402" viewBox="0 0 2116 2402" fill="none" xmlns="http://www.w3.org/2000/svg">
<g clip-path="url(#clip0_2096_6105)">
<path d="M2114.99 917.27C2114.37 890.4 2108.5 864.49 2097.69 839.7C2092.72 828.3 2085.85 818.94 2075.16 812.51C2051.77 798.42 2028.58 783.97 2004.87 770.44C1996.68 765.77 1993.09 760.1 1992.33 750.83C1991.18 736.93 1989.41 722.97 1986.48 709.35C1981.02 683.95 1974.25 658.84 1968.55 633.5C1960.04 595.69 1946.19 560.32 1923.05 528.89C1905.63 505.23 1890.77 480.1 1879.25 452.95C1873.7 439.87 1865.37 428.18 1856.13 417.16C1856.52 420.49 1857.58 423.48 1858.96 426.32C1864.62 438 1870.5 449.58 1876.08 461.31C1891.39 493.5 1905.7 526.11 1915.54 560.47C1916.53 563.94 1917.3 567.7 1916.99 571.22C1916.81 573.3 1914.64 576.35 1912.79 576.84C1910.86 577.35 1907.79 575.84 1906.07 574.27C1904.5 572.84 1903.92 570.21 1903.19 568.01C1899.73 557.58 1896.55 547.06 1892.94 536.69C1880.25 500.18 1866.21 464.21 1847.34 430.36C1827.68 395.08 1804.72 361.98 1780.32 329.84C1767.34 312.74 1752.36 297.7 1734.7 285.37C1728.97 281.37 1723.43 277.07 1718.04 272.61C1716.28 271.16 1715.31 268.77 1713.45 266.04C1722.78 263.53 1730.12 264.33 1736.19 269.97C1743.98 277.22 1751.57 284.7 1758.88 292.43C1773.5 307.86 1787.87 323.52 1802.34 339.08C1802.87 338.67 1803.4 338.26 1803.92 337.84C1797.01 328.7 1790.39 319.33 1783.14 310.47C1750.14 270.09 1712.51 234.24 1673.51 199.82C1577.31 114.91 1466.99 56.4499 1342.46 25.6099C1283.82 11.0899 1224.01 3.50986 1163.57 1.13986C1091.83 -1.67014 1020.23 0.489856 949.24 11.0699C856.91 24.8199 769.22 53.9299 686.41 97.0099C600.78 141.55 525.52 200.15 458.83 269.64C378.14 353.72 318.73 450.57 286.49 563.17C274.57 604.8 263.22 646.59 251.73 688.34C249.64 695.94 245.78 702.26 240.63 708.15C233.85 715.91 227.2 723.85 221.2 732.21C212.26 744.65 203.9 757.51 195.35 770.24C165.55 814.63 139.05 860.75 121.17 911.41C118.34 919.44 113.74 926.47 106.8 931.44C88.49 944.54 76.09 962.71 63.78 980.94C56.24 992.11 50.73 1004.15 49.65 1017.86C49.07 1025.17 46.15 1031.49 40.34 1036.02C32.43 1042.2 27.15 1050.33 23.81 1059.41C18.66 1073.43 12.73 1087.52 10.27 1102.12C1.38002 1154.81 -2.11998 1207.89 1.20002 1261.39C4.03002 1307 7.71002 1352.45 17.35 1397.21C18.39 1402.05 19.26 1407.41 21.96 1411.32C29.48 1422.22 38.01 1432.42 45.92 1443.06C48.01 1445.87 49.82 1449.12 50.83 1452.46C53.53 1461.35 56.12 1470.21 63.98 1479.47C64.22 1473.83 64.67 1470.36 64.46 1466.93C61.74 1424.06 58.76 1381.2 56.18 1338.32C52 1268.85 45.46 1199.43 49.6 1129.71C50.66 1111.78 53.07 1093.93 55.18 1076.08C55.7 1071.71 57.48 1067.49 58.88 1062.5C69.12 1068.21 68.46 1079.29 75.34 1087.46C75.76 1079.77 75.81 1073.57 76.58 1067.45C76.87 1065.2 78.59 1061.71 80.17 1061.4C82.1 1061.01 85.23 1062.86 86.67 1064.67C88.68 1067.18 90.17 1070.43 90.86 1073.59C92.07 1079.09 93 1084.75 93.17 1090.37C94.89 1147.64 96.5 1204.91 98.01 1262.18C99.04 1301.17 101.32 1340.07 107.78 1378.58C109.59 1389.37 112.51 1400.04 115.84 1410.48C118.41 1418.54 123.24 1421.65 130.17 1419.16C140.39 1415.48 146.67 1419.39 152.16 1427.27C155.69 1432.33 160.63 1434.57 166.88 1433.72C168.52 1433.5 170.21 1433.49 171.87 1433.58C179.08 1433.96 181.35 1436.28 183.02 1445.83C177.67 1445.83 172.5 1445.74 167.33 1445.85C153.73 1446.14 140.99 1446.55 128.97 1456.19C115.33 1467.14 100.23 1461.07 92.82 1444.79C91.81 1442.56 92.07 1438.85 87.25 1437.89C88.78 1445.5 90.11 1452.3 91.52 1459.08C94.26 1472.23 90.33 1483.37 81.35 1493C79.6 1494.88 77.92 1496.83 75.66 1499.36C89.68 1518.12 103.21 1536.6 121.87 1550.59C126.98 1554.43 132.79 1555.61 138.88 1555.02C151.14 1553.84 163.44 1552.81 175.56 1550.76C183.63 1549.39 190.68 1549.84 197.12 1555.22C198.16 1556.09 199.83 1556.21 202.14 1556.99C201.69 1553.31 201.33 1550.72 201.07 1548.12C199.15 1528.9 196.91 1509.71 195.47 1490.46C194.7 1480.18 194.33 1478.84 183.96 1476.52C180.72 1475.8 177.38 1475.54 174.1 1474.97C170.16 1474.29 166.21 1473.66 162.33 1472.72C158.68 1471.83 156.95 1468.88 159.21 1466C162.41 1461.92 166.23 1457.82 170.7 1455.48C172.66 1454.46 176.89 1457.77 180.09 1459.12C181.52 1459.72 182.95 1460.34 185.64 1461.49C185.91 1456.65 186.71 1452.73 186.23 1448.97C184.44 1435.12 182.13 1421.33 180.17 1407.49C173.97 1363.64 167.43 1319.84 161.8 1275.91C156.72 1236.28 153 1196.47 148.05 1156.81C144.47 1128.08 139.62 1099.5 135.85 1070.79C134.73 1062.27 134.85 1053.5 135.31 1044.89C135.65 1038.59 138.6 1036.76 144.8 1037.99C150.34 1039.09 156.02 1040.2 161.16 1042.41C187.99 1054 214.66 1065.95 241.9 1078.01C238.17 1106.42 236.62 1134.36 227.92 1161.33C225.93 1159 224.56 1156.72 224.2 1154.29C221.98 1139.5 219.71 1124.71 218.04 1109.85C217.19 1102.27 217.84 1094.53 217.32 1086.89C216.78 1078.92 215.41 1078.28 207.77 1077.38C203.66 1076.9 199.7 1074.95 195.75 1073.47C192.86 1072.39 190.5 1069.2 186.39 1071.33C186.9 1082.29 195.01 1091.12 195.34 1104.4C188.81 1098.99 184.01 1095 179.2 1091.01C174.54 1087.15 171.69 1080.97 165.05 1079.07C162.53 1091.35 173.72 1135.34 181.99 1143.6C184.41 1133.81 186.64 1124.8 188.86 1115.79C189.53 1115.89 190.21 1115.99 190.88 1116.08V1154.08L192.51 1154.2C193.78 1147.26 195.06 1140.32 196.51 1132.41C201.51 1143.46 202.63 1181.42 198.36 1184.85C195.99 1184.58 193.47 1184.3 191.2 1184.04C187.14 1188.52 188.38 1193.32 189.08 1197.78C192.21 1217.51 195.65 1237.19 198.88 1256.9C201.94 1275.62 205 1294.35 207.78 1313.11C208.35 1317 208.13 1321.15 207.42 1325.02C207 1327.3 204.78 1331.05 203.55 1330.98C201.07 1330.84 198.1 1329.03 196.47 1326.99C194.71 1324.8 193.9 1321.63 193.33 1318.76C192.55 1314.86 192.14 1310.84 192.01 1306.85C191.13 1280.5 188.25 1254.36 183.36 1228.47C179.6 1208.53 175.56 1188.63 171.46 1168.75C170.86 1165.81 169.29 1163.07 168.17 1160.23C167.28 1160.43 166.39 1160.63 165.51 1160.84C165.89 1167.27 165.95 1173.74 166.7 1180.12C168.71 1197.32 170.92 1214.5 173.21 1231.67C178.45 1270.95 183.61 1310.23 189.12 1349.47C195.09 1392.01 201.14 1434.54 207.71 1476.99C211.83 1503.63 216.91 1530.11 221.72 1556.64C222.6 1561.47 223.41 1566.58 228.1 1569.63C230.55 1568.82 232.89 1568.04 235.2 1567.27C238.43 1574.54 230.43 1572.33 228.51 1577.67C252.26 1592.25 275.92 1607.09 299.95 1621.31C305.76 1624.75 310.3 1628.33 311.9 1635.03C314.99 1647.98 318.63 1660.82 321.18 1673.87C330.16 1719.97 339.38 1766.03 347.36 1812.31C354.54 1853.98 371.71 1890.98 395.98 1925.09C399.46 1929.98 402.9 1934.88 406.43 1939.74C440.33 1986.45 477.4 2030.59 515.94 2073.48C601.9 2169.16 689.42 2263.38 780.3 2354.45C789.25 2363.42 799.51 2369.84 811.59 2373.3C824.4 2376.97 837.27 2380.42 850.15 2383.8C891.87 2394.77 934.07 2401.44 977.46 2401.05C1056.76 2400.33 1136.07 2401.03 1215.36 2400.43C1257.32 2400.11 1299.34 2400.9 1341.18 2396.36C1383.26 2391.79 1425.16 2386.47 1466.17 2375.38C1517.9 2361.39 1565.5 2339.26 1608.41 2306.88C1647.27 2277.56 1685.09 2247.09 1720.84 2213.97C1769.35 2169.02 1810.66 2118.39 1844.66 2061.73C1855.31 2043.98 1865.2 2025.76 1870.87 2005.75C1879.13 1976.59 1886.81 1947.27 1894.5 1917.95C1897.18 1907.74 1898.64 1906.12 1909.09 1905.25C1910.74 1905.11 1912.44 1905.02 1914.02 1904.57C1934.19 1898.81 1954.25 1892.67 1974.53 1887.31C1985.02 1884.54 1990.08 1878.07 1991.73 1867.86C1993.71 1855.7 1995.8 1843.55 1998.16 1831.46C2004.85 1797.13 2012.18 1762.91 2018.38 1728.49C2026.22 1684.89 2033.34 1641.15 2040.51 1597.43C2055.44 1506.37 2070.91 1415.39 2084.76 1324.17C2092.85 1270.83 2097.75 1217.02 2104.99 1163.54C2111.12 1118.24 2115.67 1072.87 2115.75 1027.15C2115.81 990.51 2115.77 953.86 2114.92 917.24L2114.99 917.27ZM292.04 1552.24C297.21 1529.4 288.15 1508.27 285 1486.47C280.72 1456.84 275.71 1427.31 271.65 1397.65C267.99 1370.95 264.81 1344.16 262.13 1317.34C259.05 1286.54 256.38 1255.68 254.22 1224.8C251.38 1184.29 249.16 1143.73 246.79 1103.19C246.45 1097.31 246.74 1091.39 246.74 1083.85C265.29 1087.94 280.79 1094.2 296.07 1101.72C291.7 1104.39 287.46 1103.59 283.16 1102.29C277.43 1100.56 271.75 1098.52 265.9 1097.34C257.56 1095.67 255.39 1098.39 256.35 1106.97C258.83 1129.13 261.19 1151.3 263.29 1173.5C266.34 1205.65 268.96 1237.83 272.07 1269.97C275.7 1307.4 279.51 1344.82 283.52 1382.22C288.55 1429.21 293.61 1476.21 305.86 1522.06C306.71 1525.26 307.23 1528.57 307.7 1531.85C309.66 1545.52 306.6 1549.66 292.05 1552.24H292.04ZM1983.44 1044.98C1983.94 1036.08 1985.8 1027.14 1988.11 1018.51C1990.38 1010.04 1994.88 1009.02 2000.82 1015.33C2004.4 1019.14 2007.48 1023.68 2009.76 1028.39C2012.65 1034.35 2014.32 1040.88 2016.84 1047.03C2020.23 1055.32 2023.32 1063.83 2027.62 1071.64C2033.75 1082.75 2037.13 1094.33 2036.61 1106.96C2036.01 1121.6 2035.18 1136.23 2034.44 1150.86C2033.83 1162.83 2035.48 1173.97 2043.91 1183.49C2047.77 1187.85 2048.66 1193.49 2045.64 1200.59C2041.95 1198.57 2038.32 1197.19 2035.44 1194.87C2027.65 1188.62 2019.98 1182.2 2012.65 1175.42C2007.35 1170.52 2002.5 1169.1 1995.74 1173C1987.55 1177.72 1984.19 1176.12 1983.27 1166.6C1981.78 1151.06 1980.6 1135.41 1980.74 1119.81C1980.96 1094.86 1982.06 1069.9 1983.45 1044.98H1983.44ZM1976.28 1256.47C1976.78 1252.66 1978.45 1248.69 1980.6 1245.47C1987.51 1235.12 1998.4 1234.89 2006.18 1244.5C2013.22 1253.19 2016.1 1263.25 2015.93 1274.24C2015.83 1280.82 2013.89 1286.63 2008.16 1290.73C1999.91 1296.64 1996.66 1304.95 1996.58 1314.94C1996.52 1322.59 1995.9 1330.25 1995.39 1337.89C1995.25 1340.03 1994.62 1342.13 1994.21 1344.25C1993.56 1344.5 1992.91 1344.74 1992.26 1344.99C1990.29 1342.19 1987.74 1339.63 1986.48 1336.55C1983.34 1328.88 1979.95 1321.15 1978.17 1313.11C1974.04 1294.43 1973.78 1275.43 1976.28 1256.48V1256.47ZM1877.18 1369.38C1879.61 1335.85 1882.54 1302.36 1884.59 1268.8C1886.66 1234.91 1888.76 1200.99 1889.34 1167.05C1890.98 1070.5 1891.98 973.95 1892.93 877.39C1893.14 856.11 1892.06 834.82 1892.21 813.34C1896.56 822.11 1899.69 831.38 1901.16 841C1902.46 849.52 1903.01 858.25 1902.82 866.87C1901.86 908.48 1900.38 950.07 1899.38 991.68C1898.17 1041.94 1897.13 1092.2 1896.23 1142.47C1894.96 1213.74 1891.39 1284.89 1884.84 1355.88C1884.09 1364.02 1882.41 1372.08 1881.17 1380.18L1877.6 1379.82C1877.44 1376.34 1876.94 1372.84 1877.19 1369.39L1877.18 1369.38ZM1870.38 779.69C1875.58 785.74 1876.07 790.84 1875.57 795.58C1874.02 810.44 1872.27 825.31 1869.86 840.05C1864.51 872.91 1857.41 905.54 1853.53 938.55C1850.66 962.92 1850.8 987.77 1851.28 1012.37C1852.05 1051.33 1855.03 1090.25 1855.59 1129.2C1856.25 1174.82 1855.54 1220.47 1855.05 1266.1C1854.5 1316.4 1853.54 1366.7 1852.73 1416.99C1851.77 1476.66 1848.38 1536.13 1839.73 1595.26C1834.91 1628.2 1831.37 1661.33 1827.04 1694.34C1826.35 1699.56 1825 1704.82 1823.09 1709.73C1820.96 1715.18 1818.06 1716.29 1813.9 1714.61C1808.81 1712.55 1806.57 1708.65 1807.43 1703.84C1811.91 1678.61 1816.52 1653.41 1820.74 1628.14C1831.4 1564.34 1838.96 1500.25 1840.07 1435.46C1841.25 1366.85 1843.75 1298.25 1844.14 1229.64C1844.38 1188.37 1841.42 1147.08 1840.41 1105.79C1839.23 1057.5 1837.23 1009.13 1842.01 960.97C1845.59 924.87 1850.68 888.91 1855.77 852.98C1858.62 832.89 1862.79 812.98 1866.52 793.02C1867.23 789.21 1868.66 785.53 1870.37 779.69H1870.38ZM1705.55 321.89C1709.14 324.14 1712.67 327.03 1715.13 330.44C1744.54 371.15 1774.23 411.69 1802.74 453.02C1811.9 466.29 1818.93 481.35 1824.98 496.37C1835.78 523.17 1845.17 550.55 1854.94 577.76C1856.44 581.95 1856.77 586.56 1857.96 592.64C1849.7 590.48 1848.26 586.02 1846.54 581.17C1837.14 554.54 1827.65 527.93 1817.77 501.47C1802.15 459.63 1777.69 422.81 1751.97 386.7C1739.16 368.72 1724.3 352.65 1708.12 337.72C1704.95 334.8 1701.83 331.71 1699.32 328.25C1698.21 326.72 1698.69 324.05 1698.44 321.9C1700.85 321.83 1703.85 320.83 1705.54 321.9L1705.55 321.89ZM638.03 387.03C644.48 391.07 646.8 397.56 645.25 404.32C643.8 410.62 640.72 416.76 637.35 422.37C631.54 432.06 624.34 440.93 618.83 450.76C603.42 478.29 594.5 508.26 587.5 538.81C576.31 587.64 570.12 637.19 570.17 687.24C570.2 716.13 572.71 745.07 575.28 773.88C576.12 783.24 580.79 792.24 583.51 801.46C586.09 810.24 582.89 814.67 573.72 815.39C572.4 815.49 571.04 815.58 569.73 815.42C552.92 813.33 536.09 811.39 519.34 808.97C512.86 808.03 506.54 805.97 499.62 804.29C500.16 797.33 497.587 792.957 491.9 791.17C488.81 790.19 485.73 789.16 480.91 787.59C492.4 781.97 493.36 772.61 493.32 762.87C493.26 746.23 493.59 729.57 492.96 712.95C491.52 675.41 495.89 638.59 504.93 602.18C515.22 560.77 528.34 520.37 545.51 481.28C555.97 457.47 570.17 436.4 589.5 418.95C600.12 409.36 610.96 400 621.9 390.78C626.48 386.92 631.47 382.94 638.03 387.04V387.03ZM339.61 580.65C340.44 575.79 341.42 570.78 343.45 566.33C349.93 552.11 356.65 537.98 363.75 524.05C391.02 470.53 421.26 418.86 460.71 373.21C479.64 351.31 499.25 329.97 518.97 308.77C525.04 302.24 532.54 297.04 539.37 291.22C547.2 284.55 555.37 278.24 562.74 271.1C570.05 264.02 578.29 260.26 588.12 259.81C588.68 260.63 589.24 261.45 589.8 262.26C586.74 265.03 583.81 267.94 580.61 270.53C567.43 281.22 553.48 291.08 541.05 302.57C484.73 354.67 435.51 412.52 399.51 480.82C390.04 498.78 380.07 516.47 370.98 534.61C364.58 547.38 359.37 560.73 353.45 573.75C351.82 577.34 349.89 580.88 347.49 583.99C346.59 585.16 343.65 585.85 342.27 585.27C340.9 584.69 339.34 582.07 339.59 580.64L339.61 580.65ZM387.37 1129.04C374.28 1125.39 361.62 1120.14 348.89 1115.27C343.34 1113.15 342.27 1110.69 344.78 1105.07C348.16 1097.49 351.86 1089.97 356.21 1082.9C384.53 1036.9 416.06 993.14 449.2 950.52C452.24 946.61 455.76 942.82 459.79 940.04C462.81 937.95 467.13 936.35 470.66 936.69C476 937.21 478.07 934.83 479.32 930.64C479.98 928.43 480.3 926.08 480.43 923.78C480.62 920.46 480.87 917.07 480.45 913.8C478.41 897.99 483.86 886.52 499 880.2C506.93 876.89 508.6 869.87 509.24 862.22C510.14 851.53 512.17 849.53 522.58 849.21C529.78 848.99 537 849.17 544.21 849.17C544.7 850.19 545.19 851.21 545.69 852.23C543.4 855.26 541.36 858.54 538.75 861.27C533.47 866.81 527.93 872.12 522.4 877.42C515.64 883.91 513.64 891.34 517.69 900.04C519.51 903.96 521.25 907.92 523.31 911.71C526.02 916.7 525.57 921.27 522.17 925.67C520.54 927.78 518.93 929.9 517.24 931.96C513.05 937.08 510.72 942.82 511.69 949.51C513.62 962.91 508.85 974.39 501.59 985.13C476.92 1021.58 455.46 1059.92 434.26 1098.44C431.63 1103.21 427.59 1107.2 423.38 1112.61C438.28 1116.79 452.75 1121.29 467.45 1124.88C515.1 1136.53 563.5 1143.44 612.38 1147.17C674.12 1151.89 735.87 1156.59 797.59 1161.56C820.48 1163.4 843.32 1165.93 866.18 1168.22C869.79 1168.58 873.36 1169.34 876.95 1170.87C866.4 1173.36 855.66 1172.24 845.02 1172.44C834.36 1172.65 823.7 1172.55 813.04 1172.47C802.05 1172.38 791.06 1172.16 780.08 1171.97C769.09 1171.78 758.11 1171.65 747.13 1171.31C736.15 1170.98 725.18 1170.5 714.21 1169.94C703.57 1169.4 692.94 1168.76 682.32 1168.02C671.36 1167.26 660.41 1166.38 649.46 1165.44C638.51 1164.5 627.57 1163.49 616.64 1162.36C606.04 1161.26 595.46 1159.94 584.87 1158.76C574.03 1157.55 563.18 1156.38 551.62 1155.12C554.03 1165.27 556.78 1174.13 558.16 1183.19C562.63 1212.48 566.83 1241.82 570.71 1271.19C579.03 1334.23 586.77 1397.36 595.36 1460.37C602.6 1513.47 611.4 1566.32 623.46 1618.59C626.73 1632.78 631.46 1646.06 642.08 1656.59C643.18 1657.68 643.75 1659.31 644.78 1661.04C640.46 1665.03 635.71 1665.25 630.67 1664.51C613.21 1661.94 595.76 1659.32 578.29 1656.86C562.85 1654.69 547.37 1652.7 531.24 1650.54C534.3 1624.56 524.53 1601.12 518.62 1577.1C509.22 1538.88 503.01 1500.14 497.41 1461.26C490.44 1412.82 483.3 1364.41 476.72 1315.91C471.84 1279.95 467.43 1243.93 463.4 1207.86C461.15 1187.69 460.11 1167.39 458.49 1147.16C458.39 1145.87 458.02 1144.59 457.6 1142.4C447.6 1140.7 437.51 1139.13 427.48 1137.24C414.07 1134.72 400.49 1132.72 387.38 1129.07L387.37 1129.04ZM518.55 1648.12C515.51 1648.5 514.23 1648.94 513.05 1648.77C490.42 1645.54 467.76 1642.52 445.22 1638.77C439.39 1637.8 432.87 1636.03 429.7 1627.37C434.28 1627.26 438.08 1626.56 441.63 1627.19C459.9 1630.46 478.1 1634.05 496.32 1637.59C503.87 1639.06 510.92 1641.7 518.55 1648.11V1648.12ZM820.32 2273.61C815.06 2254.36 809.62 2235.13 805.35 2215.65C788.15 2137.26 767.14 2059.89 745.19 1982.73C732.18 1936.97 720.41 1890.85 708.59 1844.77C706.22 1835.53 705.45 1825.71 705.23 1816.13C705 1806.3 709.85 1802.27 719.79 1802.88C750.34 1804.77 780.9 1806.69 811.42 1809.06C820.33 1809.75 829.26 1811.47 837.93 1813.68C844.56 1815.37 851.34 1817.83 854.67 1825.41C852.05 1829.32 848.06 1829.57 844.12 1829.61C826.17 1829.78 808.22 1829.92 790.27 1829.93C777.29 1829.93 764.31 1829.62 751.32 1829.61C748.45 1829.61 745.59 1830.26 741.18 1830.8C752.24 1880.04 763.02 1928.31 773.94 1976.55C792.54 2058.66 811.3 2140.74 829.78 2222.88C832.11 2233.24 833.43 2243.86 834.72 2254.43C836.03 2265.16 834.56 2275.52 828.52 2285.55C822.28 2282.87 821.46 2277.86 820.31 2273.63L820.32 2273.61ZM894.1 2343.47C883.71 2349.29 874.75 2357.66 864.01 2365.78C868.64 2347.69 907.05 2326.39 928.72 2329.55C916.19 2334.45 904.43 2337.68 894.1 2343.47ZM1125.72 1743.87C1125.28 1743.87 1124.85 1743.87 1124.42 1743.87V1758.98C1124.93 1758.98 1125.45 1758.98 1125.99 1758.98V1778.21C1125.46 1778.17 1124.94 1778.14 1124.42 1778.11V1804.33C1126.03 1805.2 1125.97 1807.38 1125.78 1812.76C1125.33 1812.77 1124.87 1812.78 1124.42 1812.8V1819.3C1124.82 1819.28 1125.22 1819.27 1125.62 1819.25V1834.66C1125.22 1834.69 1124.82 1834.71 1124.42 1834.74V2034.92C1124.94 2034.92 1125.47 2034.92 1126.02 2034.92C1126.04 2040.91 1126.03 2043.1 1124.42 2043.95V2294.25C1124.94 2294.25 1125.45 2294.26 1125.97 2294.26V2304.6C1125.45 2304.62 1124.94 2304.64 1124.42 2304.65V2387.75H1102.52V2305.39C1096.93 2305.57 1091.37 2305.75 1085.81 2305.87C1045.89 2306.79 1005.91 2306.6 966.07 2308.82C932.23 2310.7 898.54 2315.32 864.78 2318.71C858.83 2319.31 852.8 2320.57 846.92 2320.1C842.99 2319.79 838.69 2317.67 835.57 2315.12C831.02 2311.41 829.18 2303.9 832.11 2301.9C836.29 2299.05 841.51 2297.55 846.48 2296.13C847.55 2295.82 849.85 2298.01 850.85 2299.53C854.05 2304.44 858.66 2305.47 863.92 2304.75C899.95 2299.82 936.29 2300.45 972.5 2298.79C992.77 2297.86 1013.07 2296.83 1033.35 2297.02C1053.92 2297.21 1074.34 2298.43 1094.85 2294.57C1097.37 2294.1 1099.93 2293.84 1102.53 2293.73V2044.91C1073.75 2045.44 1044.98 2045.35 1016.21 2044.06C993.27 2043.03 970.29 2042.57 947.33 2042.11C941.37 2041.99 935.34 2042.48 929.42 2043.3C922.37 2044.27 920.85 2047.17 921.21 2054.33C921.59 2061.89 921.32 2069.49 921.1 2077.06C921.04 2078.98 920.55 2081.2 919.46 2082.7C918.21 2084.41 916 2086.58 914.34 2086.48C912.7 2086.38 910.01 2083.77 909.88 2082.1C908.94 2070.2 907.82 2058.23 908.21 2046.33C908.45 2038.84 912.58 2035.28 920.82 2034.72C937.06 2033.62 953.38 2032.95 969.66 2033.07C1013.96 2033.4 1058.25 2034.11 1102.54 2034.72V1833.85C1100.99 1833.61 1099.43 1833.35 1097.88 1833.03C1093.18 1832.07 1088.13 1832.49 1083.26 1832.78C1078.64 1833.05 1074.07 1834.5 1069.47 1834.53C1016.53 1834.81 963.58 1834.79 910.64 1835.17C899.13 1835.25 889.16 1831.4 879.54 1825.82C878.76 1825.37 878.29 1824.36 876.64 1822.32C885.04 1820.28 892.05 1819.27 899.39 1819.94C906 1820.55 912.66 1820.7 919.31 1820.71C948.25 1820.73 977.18 1820.49 1006.12 1820.61C1022.77 1820.68 1039.41 1821.23 1056.05 1821.64C1061.04 1821.76 1066.01 1822.31 1071 1822.33C1079.65 1822.36 1088 1824.05 1097.02 1821.2C1098.81 1820.63 1100.67 1820.25 1102.56 1819.98V1813.53C1077.2 1814.66 1051.84 1816.31 1026.47 1816.47C1003.2 1816.61 979.92 1814.54 956.63 1813.86C934.32 1813.21 911.97 1813.71 889.7 1812.6C861.12 1811.18 832.54 1809.29 804.58 1802.14C798.31 1800.54 791.46 1801.09 784.87 1800.95C778.55 1800.82 772.21 1801.28 765.89 1801.14C757.98 1800.97 755.8 1797.11 759.66 1790.29C760.61 1788.62 762.16 1787.29 764.22 1784.9C754.41 1779.68 745.14 1776.61 734.79 1778.06C729.39 1778.82 724.3 1778.18 718.67 1774.51C720.7 1772.66 722 1770.61 723.79 1769.99C733.8 1766.54 743.74 1762.29 754.08 1760.48C770.22 1757.66 786.42 1759.05 802.69 1762C812.98 1763.86 823.86 1763 834.44 1762.61C843.51 1762.27 852.23 1762.93 862.42 1766.97C859.2 1768.43 857.45 1769.65 855.54 1770.02C828.82 1775.18 802.11 1777.7 775.41 1769.77C771.61 1768.64 767.6 1768.08 763.65 1767.62C760.6 1767.26 756.99 1767.48 756.79 1771.46C756.58 1775.73 760.13 1775.52 763.25 1775.42C768.24 1775.25 773.28 1774.74 778.21 1775.25C785.48 1776 788.07 1779.08 788.93 1786.16C801.06 1788.7 813.04 1791.54 825.16 1793.57C829.53 1794.3 834.73 1794.28 838.66 1792.55C845.72 1789.45 852.15 1790.08 858.96 1792.48C864.29 1794.36 869.6 1796.64 875.12 1797.52C878.72 1798.1 883.94 1797.82 886.23 1795.63C895.65 1786.58 907.28 1786.07 918.89 1786.08C929.51 1786.08 940.14 1787.31 950.74 1788.2C958.7 1788.87 966.65 1790.6 974.58 1790.46C981.08 1790.35 987.75 1788.78 993.99 1786.77C1004.51 1783.37 1007.03 1783.98 1013.69 1794.58C1012.12 1796.66 1010.43 1798.9 1008.59 1801.34C1009.53 1801.99 1010.28 1802.94 1011.06 1802.97C1022.03 1803.48 1033.01 1804.21 1043.99 1804.21C1063.51 1804.23 1083.04 1803.98 1102.56 1803.83V1776.29C1084.93 1774.68 1067.59 1777.02 1050.36 1780.84C1036.51 1783.91 1022.82 1784.73 1008.93 1780.77C1004.23 1779.43 999.06 1779.39 994.1 1779.33C979.46 1779.15 964.81 1779.26 950.17 1779.27C929.39 1779.28 909.13 1775.72 889.15 1770.32C887 1769.74 884.97 1768.71 882.55 1766.07C885.4 1765.21 888.19 1763.93 891.1 1763.56C910.56 1761.06 929.99 1757.71 949.53 1756.69C968.73 1755.69 988.06 1757.19 1007.33 1757.49C1039.07 1757.97 1070.81 1758.4 1102.56 1758.82V1743.88C1100.98 1743.87 1099.39 1743.86 1097.81 1743.82C1056.21 1742.99 1014.61 1742.21 973.02 1741.12C926.77 1739.9 880.49 1739.27 834.32 1736.63C801.46 1734.76 768.63 1730.97 736.04 1726.28C688.94 1719.5 642 1711.53 595.13 1703.32C532.38 1692.33 470.75 1677.08 412.14 1651.38C406.87 1649.07 401.75 1646.38 396.56 1643.87C396.75 1643.16 396.94 1642.46 397.12 1641.75C400.57 1641.75 404.05 1641.5 407.47 1641.79C435 1644.08 462.53 1646.36 490.04 1648.87C504.59 1650.2 519.15 1651.66 533.62 1653.67C540.15 1654.58 546.6 1656.64 552.85 1658.84C557.14 1660.35 561.6 1662.44 562.28 1668.49C556.98 1673.63 550.02 1672.02 543.67 1672.65C537.18 1673.3 530.66 1673.68 524.15 1674.18C524.01 1675.09 523.87 1676 523.74 1676.91C526.58 1677.99 529.34 1679.43 532.28 1680.09C564.09 1687.23 595.84 1694.69 627.79 1701.19C677.76 1711.34 728.37 1717.36 779.08 1722.14C821.82 1726.17 864.67 1729.08 907.53 1731.67C966.06 1735.21 1024.68 1734.4 1083.28 1734.31C1089.68 1734.3 1096.08 1734.3 1102.56 1734.3V1178.4C1049.03 1178.41 995.5 1178.46 941.98 1178.34C930.35 1178.31 918.71 1177.74 907.1 1176.97C902.34 1176.65 897.67 1175.14 891.55 1173.89C896.03 1167.71 900.51 1167.81 904.74 1167.88C925.68 1168.24 946.65 1168.14 967.54 1169.36C1012.54 1171.99 1057.54 1171.74 1102.56 1171.15V13.3399H1124.46V1173.06C1125.08 1173.54 1125.69 1174.03 1126.32 1174.44C1125.68 1174.98 1125.08 1175.62 1124.46 1176.23V1734.35C1124.92 1734.35 1125.38 1734.35 1125.84 1734.35C1126.16 1736.45 1126.5 1737.74 1126.5 1739.03C1126.5 1740.28 1126.14 1741.53 1125.76 1743.87H1125.72ZM1711.93 1942.97C1704.28 1948.82 1696.49 1954.55 1688.36 1959.71C1675.42 1967.91 1662.1 1975.49 1649.07 1983.54C1639.6 1989.39 1631.84 1997.12 1625.54 2006.32C1621.18 2012.69 1615.56 2017.63 1609.54 2022.53C1603.82 2027.19 1598.83 2033.65 1595.63 2040.33C1587.58 2057.12 1580.48 2074.39 1573.42 2091.64C1555.89 2134.46 1538.5 2177.33 1521.24 2220.26C1506.83 2256.08 1492.96 2292.12 1478.24 2327.81C1474.35 2337.25 1468.35 2345.84 1463.05 2354.65C1461.82 2356.69 1459.48 2358.07 1456.78 2360.55C1455.34 2354.49 1457.1 2350.23 1458.64 2346.08C1467.21 2322.99 1475.77 2299.89 1484.61 2276.91C1504.1 2226.27 1524.19 2175.86 1543.12 2125.02C1549.71 2107.31 1553.66 2088.62 1558.72 2070.35C1559.11 2068.95 1558.77 2067.34 1557.81 2065.69C1550.99 2085.43 1544.73 2105.39 1537.25 2124.88C1512.92 2188.28 1488.09 2251.48 1463.62 2314.82C1459.31 2325.98 1455.21 2337.3 1452.13 2348.85C1449.87 2357.34 1445.17 2362.85 1437.73 2366.87C1424.53 2374 1410.05 2376.56 1395.51 2378.1C1360.41 2381.81 1325.27 2385.16 1290.09 2388C1238.55 2392.16 1186.88 2390.31 1135.26 2390.54C1132.4 2390.55 1128.52 2391.89 1126.93 2386.31C1129.48 2385.94 1131.54 2385.39 1133.6 2385.38C1165.58 2385.35 1197.58 2386.3 1229.52 2385.21C1277.54 2383.57 1325 2376.63 1371.9 2366.17C1379.96 2364.37 1387.71 2361.03 1395.43 2357.95C1404.34 2354.4 1409.19 2347.42 1412.65 2338.45C1432.44 2287.11 1445.45 2233.67 1461.77 2181.26C1472.16 2147.9 1482.27 2114.43 1493.5 2081.35C1498.61 2066.3 1505.99 2052.01 1512.62 2037.5C1516.1 2029.89 1521.98 2024.75 1530.19 2022.3C1534.35 2021.06 1538.54 2019.33 1539.62 2014.36C1540.95 2008.27 1545.56 2005.9 1550.77 2004.11C1557.38 2001.84 1564.01 1999.63 1570.59 1997.27C1581.58 1993.33 1590.57 1986.75 1596.87 1976.78C1603.24 1966.69 1609.58 1956.59 1615.93 1946.49L1614.26 1944.76C1609.43 1946.78 1604.59 1948.8 1599.75 1950.83C1564.13 1965.76 1528.52 1980.69 1492.9 1995.61C1491.06 1996.38 1489.2 1997.11 1487.33 1997.8C1484.26 1998.93 1480.98 2001.06 1478.1 1997.95C1475.51 1995.15 1475.05 1991.87 1475.98 1987.81C1480.12 1969.64 1483.94 1951.39 1487.62 1933.12C1503.23 1855.44 1519.6 1777.91 1534.01 1700.01C1543.94 1646.35 1551.56 1592.24 1559.39 1538.21C1566.27 1490.75 1572.4 1443.18 1578.11 1395.56C1583.06 1354.23 1587.7 1312.83 1591.13 1271.35C1596.18 1210.28 1600.86 1149.15 1604.19 1087.96C1608.49 1008.76 1609.96 929.48 1605 850.22C1600.66 780.7 1587.24 713.12 1563.74 647.35C1546.77 599.89 1522.16 556.73 1495.7 514.26C1477.22 484.59 1459.63 454.36 1441.79 424.31C1439.43 420.33 1437.41 416.02 1436.07 411.61C1434.37 406.03 1436.7 402.27 1442.55 401.62C1454.43 400.3 1466.09 401.55 1475.56 409.67C1481.07 414.4 1485.89 420.03 1490.55 425.64C1502.46 439.99 1513.56 455.03 1525.96 468.92C1546.86 492.32 1562 519.12 1575.05 547.36C1598.11 597.27 1619.71 647.74 1635.65 700.46C1646.95 737.85 1654.71 775.97 1659.14 814.75C1662.93 847.83 1666.86 880.91 1670.1 914.05C1673.37 947.53 1676.07 981.07 1678.61 1014.62C1680.29 1036.86 1682.08 1059.15 1682.38 1081.44C1683.08 1133.8 1678.91 1185.96 1674.54 1238.09C1671.09 1279.25 1667.59 1320.41 1663.49 1361.5C1659.32 1403.25 1654.83 1444.98 1649.65 1486.62C1644.68 1526.59 1639.69 1566.61 1632.8 1606.27C1624.43 1654.47 1614.66 1702.45 1604.4 1750.29C1592.39 1806.27 1579.31 1862.02 1566.41 1917.8C1563.94 1928.47 1560.13 1938.83 1556.94 1949.33C1556.2 1951.78 1555.45 1954.24 1554.64 1956.92C1560.46 1960.99 1565.98 1959.76 1571.11 1957.35C1583.46 1951.56 1595.84 1945.76 1607.81 1939.24C1621.13 1931.99 1635.41 1927.69 1649.89 1923.76C1651.75 1923.26 1653.76 1923.36 1656.37 1924.75C1649.21 1928.46 1642.05 1932.18 1634.3 1936.2C1641.87 1942.7 1648.61 1934.27 1656.6 1936.3C1652.17 1940.41 1648.42 1943.9 1643.89 1948.11C1647.36 1949.77 1650.07 1951.06 1654.05 1952.95C1645.92 1966.82 1634.64 1977.69 1626.27 1990.83C1633.36 1987.86 1638.54 1982.76 1643.36 1976.91C1647.11 1972.36 1651.07 1967.35 1656.06 1964.55C1674.34 1954.31 1693.09 1944.89 1711.7 1935.23C1713.34 1934.38 1715.28 1934.12 1717.07 1933.58L1718.42 1935.19C1716.28 1937.81 1714.54 1940.94 1711.93 1942.94V1942.97ZM1882.37 1731.89C1880.96 1735.2 1878.87 1738.36 1876.53 1741.12C1863.09 1756.98 1852.44 1774.58 1843.4 1793.22C1823.85 1833.49 1793.76 1865.44 1761.84 1895.85C1752.71 1904.55 1742.81 1912.48 1732.84 1920.23C1726.07 1925.49 1718.4 1929.4 1709.15 1931.41C1708.51 1925.81 1712.27 1923.59 1714.79 1921.03C1726.72 1908.95 1739.33 1897.51 1750.81 1885.03C1772.47 1861.48 1792.6 1836.72 1807.84 1808.32C1816.78 1791.65 1820.62 1773.44 1825.03 1755.36C1827.47 1745.35 1829.79 1735.3 1832.33 1725.31C1833.03 1722.55 1834.34 1719.95 1835.38 1717.27C1836.11 1717.2 1836.84 1717.13 1837.56 1717.06C1838.8 1720.26 1840.45 1723.37 1841.18 1726.68C1842.25 1731.54 1842.7 1736.54 1843.36 1741.49C1844.49 1749.91 1841.73 1756.74 1836.48 1763.55C1824.21 1779.48 1815.33 1797.33 1810.32 1816.91C1809.3 1820.91 1809.28 1825.16 1808.8 1829.29C1809.48 1829.71 1810.16 1830.14 1810.84 1830.56C1813.58 1828.55 1817.09 1827.07 1818.92 1824.43C1825.31 1815.17 1832.25 1806.03 1836.9 1795.89C1845.08 1778.08 1851.65 1759.54 1859.06 1741.36C1861.44 1735.52 1864.22 1729.83 1866.99 1724.15C1869.07 1719.88 1872.28 1718.53 1876.83 1720.75C1881.96 1723.25 1884.35 1727.26 1882.38 1731.9L1882.37 1731.89ZM1927.45 1498.27C1921.48 1544.15 1914.56 1589.91 1907.19 1635.59C1903.53 1658.23 1898.03 1680.58 1893.11 1703.01C1892.23 1707.03 1890.14 1710.79 1888.77 1714.24C1876.75 1713.8 1867.48 1710.36 1859.93 1702.31C1857.91 1700.15 1854.38 1699.4 1850.31 1697.39C1851 1693.33 1851.39 1688.07 1852.83 1683.11C1861.68 1652.77 1870.87 1622.53 1879.76 1592.2C1889.76 1558.03 1900.15 1523.96 1909.29 1489.56C1919.65 1450.56 1925.75 1410.67 1929.25 1370.51C1935.01 1304.49 1940.37 1238.43 1944.9 1172.32C1950.03 1097.5 1950.54 1022.53 1948.62 947.59C1947.53 905.32 1944.66 863.09 1942.67 820.84C1942.26 812.19 1942.13 803.53 1942.08 794.87C1942.06 791.36 1942.59 787.85 1942.9 783.97C1947.94 784.34 1948.51 787.66 1948.97 790.33C1951.8 806.7 1955.88 823.03 1956.77 839.52C1959.02 881.41 1960.49 923.38 1961.02 965.33C1961.67 1016.95 1962.14 1068.61 1960.65 1120.19C1959.37 1164.44 1955.64 1208.64 1952.22 1252.79C1949.08 1293.29 1945.17 1333.74 1941.1 1374.16C1936.93 1415.57 1932.82 1457.01 1927.45 1498.28V1498.27ZM2086.32 1256.51C2081.06 1302.84 2073.63 1348.83 2063.32 1394.31C2044.68 1476.44 2022.66 1557.67 1997.24 1637.94C1992.35 1653.39 1985.35 1668.22 1978.68 1683.05C1976.72 1687.41 1973.06 1691.42 1969.26 1694.44C1962.39 1699.89 1956.41 1697.99 1954.25 1689.58C1952.11 1681.24 1950.98 1672.61 1949.75 1664.06C1945.18 1632.29 1944.94 1600.41 1947.42 1568.44C1950.75 1525.32 1953.74 1482.16 1956.88 1439.02C1957.02 1437.05 1957.23 1435.08 1957.61 1430.79C1961.53 1446.84 1959.38 1460.6 1957.84 1474.28C1952.83 1518.67 1948.95 1563.08 1953.58 1607.76C1954.22 1613.93 1955.6 1620.02 1956.77 1626.88C1959.21 1625.85 1960.69 1625.67 1961.46 1624.83C1974.76 1610.23 1986.94 1594.81 1993.4 1575.81C2005.27 1540.86 2017.51 1506.01 2028.37 1470.74C2038.93 1436.41 2048.86 1401.83 2057.35 1366.94C2063.39 1342.1 2066.27 1316.51 2071.18 1291.38C2073.66 1278.7 2077.45 1266.26 2080.89 1253.78C2081.5 1251.56 2083.34 1249.67 2084.61 1247.62C2085.2 1247.8 2085.79 1247.97 2086.38 1248.15C2086.38 1250.94 2086.65 1253.75 2086.34 1256.5L2086.32 1256.51ZM2090.68 1212.47C2090.13 1217.29 2088.2 1222.15 2085.94 1226.5C2084.45 1229.37 2081.23 1231.35 2078.9 1233.62C2073.36 1229.65 2074.75 1225.04 2075.19 1220.94C2076.31 1210.68 2077.65 1200.45 2079.19 1190.24C2084.03 1158.27 2082 1126.5 2076.39 1094.87C2073.23 1077.04 2065.22 1061.36 2052.85 1048.27C2036.62 1031.1 2019.81 1014.49 2003.27 997.62C1998.68 992.94 1994.13 988.23 1988.02 981.95C1992.36 981.35 1994.48 980.57 1996.42 980.87C2004.22 982.09 2011.16 985.18 2015.82 991.91C2029.74 1012.01 2047.89 1028.39 2063.82 1046.72C2070.12 1053.97 2075.7 1061.91 2081.07 1069.9C2088.1 1080.37 2091.2 1092.37 2092 1104.79C2094.3 1140.71 2094.8 1176.64 2090.69 1212.48L2090.68 1212.47Z" fill="black"/>
</g>
<defs>
<clipPath id="clip0_2096_6105">
<rect width="2115.84" height="2401.08" fill="white"/>
</clipPath>
</defs>
</svg>
