<svg width="550" height="625" viewBox="0 0 550 625" fill="none" xmlns="http://www.w3.org/2000/svg">
<path d="M549.798 238.764C549.636 231.769 548.111 225.025 545.3 218.572C544.009 215.604 542.223 213.168 539.444 211.494C533.364 207.827 527.335 204.065 521.172 200.543C519.043 199.328 518.11 197.852 517.912 195.439C517.613 191.821 517.153 188.187 516.392 184.641C514.972 178.03 513.212 171.494 511.731 164.897C509.519 155.055 505.918 145.849 499.903 137.667C495.375 131.508 491.512 124.967 488.517 117.9C487.075 114.495 484.909 111.452 482.507 108.584C482.609 109.45 482.884 110.229 483.243 110.968C484.714 114.008 486.243 117.023 487.693 120.076C491.673 128.455 495.393 136.944 497.951 145.888C498.208 146.791 498.408 147.77 498.328 148.686C498.281 149.227 497.717 150.021 497.236 150.149C496.734 150.281 495.936 149.888 495.489 149.48C495.081 149.108 494.93 148.423 494.74 147.85C493.841 145.135 493.014 142.397 492.076 139.698C488.777 130.194 485.128 120.831 480.222 112.02C475.112 102.836 469.143 94.2201 462.801 85.8539C459.426 81.4027 455.532 77.4878 450.942 74.2783C449.452 73.237 448.012 72.1177 446.611 70.9568C446.153 70.5794 445.901 69.9572 445.418 69.2466C447.843 68.5933 449.751 68.8015 451.329 70.2696C453.354 72.1568 455.327 74.1039 457.227 76.116C461.028 80.1325 464.763 84.2088 468.525 88.2591C468.662 88.1524 468.8 88.0457 468.935 87.9363C467.139 85.5572 465.418 83.1181 463.534 80.8119C454.955 70.3008 445.173 60.969 435.035 52.0094C410.028 29.907 381.351 14.6897 348.979 6.662C333.736 2.8824 318.188 0.909304 302.477 0.292386C283.828 -0.439065 265.216 0.123189 246.762 2.87719C222.761 6.45636 199.966 14.0338 178.44 25.2476C156.181 36.8415 136.617 52.0953 119.281 70.1837C98.3057 92.07 82.8622 117.28 74.4814 146.59C71.3828 157.427 68.4324 168.305 65.4456 179.173C64.9023 181.151 63.8989 182.796 62.5602 184.329C60.7977 186.349 59.0691 188.416 57.5094 190.592C55.1854 193.83 53.0123 197.178 50.7897 200.491C43.0432 212.046 36.1546 224.051 31.5067 237.238C30.7711 239.328 29.5753 241.158 27.7713 242.452C23.0116 245.862 19.7882 250.592 16.5883 255.337C14.6282 258.245 13.1959 261.379 12.9152 264.947C12.7644 266.85 12.0054 268.495 10.4951 269.675C8.43887 271.283 7.06634 273.4 6.19811 275.763C4.85937 279.413 3.31788 283.08 2.67841 286.881C0.367462 300.596 -0.542359 314.413 0.320671 328.339C1.05633 340.211 2.01294 352.042 4.51884 363.693C4.78919 364.953 5.01534 366.348 5.71721 367.366C7.67202 370.204 9.88938 372.859 11.9456 375.628C12.4889 376.36 12.9594 377.206 13.2219 378.075C13.9238 380.389 14.5971 382.695 16.6402 385.106C16.7026 383.638 16.8196 382.735 16.765 381.842C16.058 370.683 15.2833 359.526 14.6126 348.364C13.5261 330.281 11.826 312.211 12.9022 294.062C13.1777 289.395 13.8042 284.749 14.3527 280.102C14.4879 278.965 14.9506 277.866 15.3145 276.567C17.9764 278.054 17.8048 280.938 19.5933 283.065C19.7024 281.063 19.7154 279.449 19.9156 277.856C19.991 277.27 20.4381 276.362 20.8488 276.281C21.3505 276.18 22.1642 276.661 22.5385 277.132C23.061 277.786 23.4483 278.632 23.6277 279.454C23.9422 280.886 24.184 282.359 24.2281 283.822C24.6753 298.73 25.0938 313.637 25.4863 328.545C25.754 338.694 26.3467 348.82 28.026 358.844C28.4965 361.653 29.2556 364.43 30.1212 367.148C30.7893 369.246 32.0448 370.055 33.8463 369.407C36.5029 368.449 38.1354 369.467 39.5625 371.518C40.4801 372.835 41.7643 373.418 43.389 373.197C43.8153 373.14 44.2546 373.137 44.6861 373.161C46.5603 373.259 47.1504 373.863 47.5845 376.349C46.1938 376.349 44.8499 376.326 43.5059 376.354C39.9706 376.43 36.6589 376.537 33.5343 379.046C29.9886 381.896 26.0634 380.316 24.1372 376.079C23.8746 375.498 23.9422 374.532 22.6893 374.283C23.087 376.263 23.4327 378.033 23.7992 379.798C24.5115 383.221 23.4899 386.121 21.1556 388.628C20.7006 389.117 20.2639 389.625 19.6764 390.283C23.3209 395.167 26.838 399.977 31.6887 403.619C33.017 404.618 34.5273 404.925 36.1104 404.772C39.2974 404.465 42.4947 404.196 45.6453 403.663C47.7431 403.306 49.5757 403.423 51.2498 404.824C51.5202 405.05 51.9543 405.082 52.5548 405.285C52.4378 404.327 52.3442 403.652 52.2766 402.976C51.7775 397.973 51.1952 392.977 50.8209 387.967C50.6207 385.291 50.5246 384.942 47.8289 384.338C46.9867 384.151 46.1184 384.083 45.2658 383.935C44.2416 383.758 43.2148 383.594 42.2062 383.349C41.2574 383.117 40.8077 382.349 41.3952 381.6C42.227 380.538 43.22 379.47 44.382 378.861C44.8915 378.596 45.9911 379.457 46.8229 379.809C47.1946 379.965 47.5663 380.126 48.2656 380.426C48.3358 379.166 48.5438 378.145 48.419 377.167C47.9537 373.561 47.3532 369.972 46.8437 366.369C45.232 354.955 43.5319 343.554 42.0684 332.119C40.7479 321.803 39.7809 311.44 38.4941 301.117C37.5635 293.638 36.3028 286.199 35.3228 278.725C35.0316 276.508 35.0628 274.225 35.1824 271.983C35.2708 270.344 36.0376 269.867 37.6493 270.187C39.0894 270.474 40.5659 270.763 41.9021 271.338C48.8765 274.355 55.8093 277.465 62.8903 280.605C61.9207 288 61.5178 295.273 59.2562 302.293C58.7389 301.687 58.3828 301.093 58.2892 300.461C57.7121 296.611 57.1221 292.761 56.6879 288.893C56.467 286.92 56.636 284.905 56.5008 282.916C56.3604 280.842 56.0043 280.675 54.0183 280.441C52.9499 280.316 51.9205 279.808 50.8937 279.423C50.1424 279.142 49.529 278.311 48.4606 278.866C48.5931 281.719 50.7013 284.017 50.7871 287.474C49.0896 286.066 47.8419 285.027 46.5915 283.989C45.3802 282.984 44.6393 281.375 42.9133 280.881C42.2582 284.077 45.167 295.528 47.3168 297.678C47.9459 295.13 48.5256 292.784 49.1026 290.439C49.2768 290.465 49.4536 290.491 49.6277 290.514V300.406L50.0515 300.437C50.3816 298.631 50.7143 296.824 51.0912 294.765C52.391 297.642 52.6821 307.523 51.5722 308.415C50.9561 308.345 50.301 308.272 49.7109 308.205C48.6555 309.371 48.9779 310.62 49.1598 311.781C49.9735 316.917 50.8677 322.04 51.7073 327.17C52.5028 332.043 53.2982 336.919 54.0209 341.802C54.169 342.814 54.1119 343.895 53.9273 344.902C53.8181 345.496 53.241 346.472 52.9213 346.454C52.2766 346.417 51.5046 345.946 51.0808 345.415C50.6233 344.845 50.4128 344.02 50.2646 343.273C50.0619 342.257 49.9553 341.211 49.9215 340.172C49.6927 333.313 48.9441 326.509 47.6729 319.77C46.6955 314.579 45.6453 309.399 44.5795 304.225C44.4236 303.459 44.0154 302.746 43.7243 302.007C43.4929 302.059 43.2616 302.111 43.0328 302.166C43.1316 303.839 43.1472 305.524 43.3422 307.184C43.8647 311.661 44.4392 316.133 45.0344 320.603C46.3966 330.828 47.7379 341.052 49.1702 351.267C50.7221 362.34 52.2948 373.41 54.0027 384.46C55.0737 391.395 56.3942 398.288 57.6446 405.193C57.8733 406.451 58.0839 407.781 59.303 408.575C59.9399 408.364 60.5482 408.161 61.1487 407.96C61.9883 409.853 59.9087 409.278 59.4096 410.668C65.5834 414.463 71.7338 418.326 77.9803 422.027C79.4906 422.923 80.6708 423.855 81.0867 425.599C81.89 428.97 82.8362 432.312 83.499 435.709C85.8334 447.709 88.2301 459.698 90.3045 471.745C92.1709 482.592 96.6343 492.223 102.943 501.102C103.848 502.375 104.742 503.65 105.66 504.915C114.472 517.074 124.108 528.564 134.127 539.728C156.472 564.634 179.223 589.16 202.847 612.866C205.173 615.201 207.84 616.872 210.98 617.772C214.31 618.728 217.656 619.626 221.004 620.506C231.849 623.361 242.819 625.097 254.098 624.996C274.712 624.808 295.329 624.991 315.94 624.834C326.847 624.751 337.77 624.957 348.647 623.775C359.585 622.585 370.477 621.2 381.138 618.314C394.585 614.672 406.958 608.912 418.113 600.483C428.214 592.851 438.046 584.92 447.339 576.298C459.949 564.598 470.687 551.419 479.526 536.67C482.294 532.049 484.865 527.307 486.339 522.098C488.486 514.508 490.482 506.876 492.481 499.243C493.178 496.586 493.558 496.164 496.274 495.938C496.703 495.901 497.145 495.878 497.556 495.761C502.799 494.261 508.013 492.663 513.285 491.268C516.012 490.547 517.327 488.863 517.756 486.205C518.271 483.04 518.814 479.877 519.428 476.73C521.167 467.794 523.072 458.886 524.684 449.927C526.722 438.577 528.573 427.192 530.437 415.811C534.318 392.108 538.339 368.426 541.939 344.681C544.042 330.796 545.316 316.789 547.198 302.868C548.792 291.077 549.974 279.267 549.995 267.366C550.011 257.828 550 248.288 549.779 238.756L549.798 238.764ZM75.9241 404.048C77.2681 398.103 74.9129 392.603 74.0941 386.928C72.9815 379.215 71.6792 371.529 70.6238 363.808C69.6724 356.858 68.8457 349.884 68.1491 342.903C67.3484 334.886 66.6544 326.853 66.0929 318.815C65.3546 308.27 64.7775 297.712 64.1615 287.159C64.0731 285.629 64.1485 284.088 64.1485 282.125C68.9705 283.19 72.9997 284.819 76.9717 286.776C75.8358 287.471 74.7336 287.263 73.6158 286.925C72.1263 286.475 70.6498 285.944 69.1291 285.636C66.9611 285.202 66.397 285.91 66.6466 288.143C67.2912 293.911 67.9047 299.682 68.4506 305.461C69.2435 313.83 69.9245 322.206 70.733 330.572C71.6766 340.316 72.667 350.056 73.7094 359.791C75.0169 372.023 76.3323 384.257 79.5166 396.192C79.7376 397.025 79.8728 397.887 79.9949 398.741C80.5044 402.299 79.709 403.377 75.9267 404.048H75.9241ZM515.601 272.007C515.731 269.69 516.215 267.363 516.815 265.117C517.405 262.912 518.575 262.646 520.119 264.289C521.05 265.281 521.85 266.462 522.443 267.688C523.194 269.24 523.628 270.94 524.284 272.541C525.165 274.698 525.968 276.914 527.086 278.947C528.679 281.839 529.558 284.853 529.423 288.14C529.267 291.951 529.051 295.76 528.859 299.568C528.7 302.684 529.129 305.583 531.32 308.061C532.324 309.196 532.555 310.664 531.77 312.513C530.811 311.987 529.867 311.628 529.119 311.024C527.094 309.397 525.1 307.726 523.194 305.961C521.817 304.685 520.556 304.316 518.799 305.331C516.67 306.56 515.796 306.143 515.557 303.665C515.17 299.62 514.863 295.546 514.899 291.485C514.957 284.991 515.243 278.494 515.604 272.007H515.601ZM513.74 327.058C513.87 326.067 514.304 325.033 514.863 324.195C516.659 321.501 519.49 321.441 521.513 323.943C523.343 326.205 524.091 328.823 524.047 331.684C524.021 333.397 523.517 334.909 522.027 335.976C519.883 337.515 519.038 339.678 519.017 342.278C519.001 344.27 518.84 346.264 518.708 348.252C518.671 348.809 518.508 349.356 518.401 349.908C518.232 349.973 518.063 350.035 517.894 350.1C517.382 349.372 516.719 348.705 516.392 347.903C515.575 345.907 514.694 343.895 514.231 341.802C513.158 336.939 513.09 331.994 513.74 327.061V327.058ZM487.979 356.449C488.611 347.721 489.373 339.004 489.905 330.268C490.443 321.446 490.989 312.617 491.14 303.782C491.566 278.65 491.826 253.518 492.073 228.383C492.128 222.844 491.847 217.302 491.886 211.71C493.017 213.993 493.831 216.406 494.213 218.91C494.551 221.128 494.694 223.401 494.644 225.644C494.395 236.476 494.01 247.302 493.75 258.133C493.435 271.216 493.165 284.298 492.931 297.384C492.601 315.936 491.673 334.456 489.97 352.935C489.775 355.054 489.339 357.152 489.016 359.26L488.088 359.167C488.047 358.261 487.917 357.35 487.982 356.452L487.979 356.449ZM486.212 202.951C487.563 204.526 487.691 205.854 487.561 207.087C487.158 210.955 486.703 214.826 486.076 218.663C484.686 227.217 482.84 235.71 481.831 244.303C481.085 250.646 481.122 257.115 481.247 263.518C481.447 273.66 482.221 283.791 482.367 293.93C482.538 305.805 482.354 317.687 482.227 329.565C482.084 342.658 481.834 355.752 481.623 368.842C481.374 384.374 480.493 399.855 478.244 415.246C476.991 423.821 476.071 432.445 474.945 441.037C474.766 442.396 474.415 443.765 473.919 445.043C473.365 446.462 472.611 446.751 471.53 446.314C470.206 445.777 469.624 444.762 469.848 443.51C471.012 436.943 472.211 430.383 473.308 423.805C476.079 407.198 478.044 390.515 478.332 373.65C478.639 355.791 479.289 337.934 479.39 320.074C479.453 309.332 478.683 298.584 478.421 287.836C478.114 275.266 477.594 262.675 478.837 250.139C479.767 240.742 481.091 231.381 482.414 222.029C483.155 216.799 484.239 211.617 485.208 206.421C485.393 205.429 485.764 204.471 486.209 202.951H486.212ZM443.364 83.7845C444.297 84.3702 445.215 85.1225 445.854 86.0101C453.5 96.607 461.217 107.16 468.629 117.918C471.01 121.372 472.837 125.292 474.41 129.202C477.217 136.178 479.658 143.305 482.198 150.388C482.588 151.479 482.674 152.679 482.983 154.262C480.836 153.699 480.461 152.538 480.014 151.276C477.571 144.344 475.104 137.417 472.536 130.53C468.475 119.639 462.117 110.054 455.431 100.655C452.101 95.9745 448.238 91.7914 444.032 87.9051C443.208 87.145 442.397 86.3407 441.745 85.44C441.456 85.0418 441.581 84.3468 441.516 83.7871C442.142 83.7689 442.922 83.5086 443.362 83.7871L443.364 83.7845ZM165.864 100.741C167.54 101.792 168.144 103.482 167.741 105.241C167.364 106.881 166.563 108.479 165.687 109.94C164.177 112.462 162.305 114.771 160.873 117.33C156.867 124.496 154.548 132.297 152.729 140.249C149.82 152.96 148.211 165.858 148.224 178.886C148.231 186.406 148.884 193.939 149.552 201.439C149.77 203.875 150.984 206.218 151.691 208.618C152.362 210.903 151.53 212.057 149.146 212.244C148.803 212.27 148.45 212.293 148.109 212.252C143.74 211.708 139.365 211.203 135.01 210.573C133.326 210.328 131.683 209.792 129.884 209.355C130.025 207.543 129.356 206.405 127.877 205.939C127.074 205.684 126.274 205.416 125.021 205.008C128.007 203.545 128.257 201.108 128.247 198.573C128.231 194.241 128.317 189.905 128.153 185.579C127.779 175.807 128.915 166.222 131.265 156.745C133.939 145.966 137.35 135.449 141.813 125.274C144.532 119.076 148.224 113.592 153.248 109.05C156.009 106.553 158.827 104.117 161.671 101.717C162.861 100.712 164.159 99.676 165.864 100.743V100.741ZM88.2899 151.141C88.5057 149.875 88.7604 148.571 89.2881 147.413C90.9726 143.711 92.7194 140.033 94.5651 136.407C101.654 122.476 109.515 109.026 119.77 97.1433C124.691 91.4426 129.788 85.8878 134.914 80.3693C136.492 78.6696 138.442 77.316 140.217 75.801C142.253 74.0648 144.376 72.4223 146.292 70.5637C148.192 68.7208 150.334 67.7421 152.89 67.6249C153.035 67.8384 153.181 68.0518 153.326 68.2627C152.531 68.9837 151.769 69.7412 150.938 70.4154C147.511 73.198 143.885 75.7646 140.654 78.7555C126.014 92.3172 113.219 107.376 103.861 125.154C101.399 129.829 98.8074 134.434 96.4445 139.156C94.7808 142.48 93.4265 145.955 91.8876 149.344C91.4639 150.279 90.9622 151.2 90.3383 152.01C90.1043 152.314 89.3401 152.494 88.9814 152.343C88.6252 152.192 88.2197 151.51 88.2847 151.138L88.2899 151.141ZM100.705 293.888C97.3023 292.938 94.0114 291.571 90.7022 290.304C89.2595 289.752 88.9814 289.111 89.6338 287.648C90.5125 285.675 91.4743 283.718 92.605 281.878C99.9668 269.904 108.163 258.513 116.778 247.419C117.568 246.401 118.483 245.414 119.531 244.691C120.316 244.147 121.439 243.73 122.356 243.819C123.744 243.954 124.282 243.335 124.607 242.244C124.779 241.669 124.862 241.057 124.896 240.458C124.945 239.594 125.01 238.712 124.901 237.86C124.371 233.745 125.787 230.759 129.723 229.114C131.785 228.253 132.219 226.425 132.385 224.434C132.619 221.651 133.147 221.131 135.853 221.047C137.724 220.99 139.601 221.037 141.475 221.037C141.603 221.303 141.73 221.568 141.86 221.834C141.265 222.622 140.735 223.476 140.056 224.187C138.684 225.629 137.243 227.011 135.806 228.391C134.049 230.08 133.529 232.014 134.582 234.279C135.055 235.299 135.507 236.33 136.042 237.316C136.747 238.615 136.63 239.805 135.746 240.95C135.322 241.499 134.904 242.051 134.465 242.587C133.375 243.92 132.77 245.414 133.022 247.156C133.524 250.644 132.284 253.632 130.396 256.428C123.983 265.916 118.405 275.896 112.894 285.923C112.21 287.164 111.16 288.203 110.066 289.611C113.939 290.699 117.7 291.871 121.522 292.805C133.908 295.838 146.49 297.636 159.196 298.607C175.245 299.836 191.297 301.059 207.341 302.353C213.291 302.832 219.229 303.491 225.171 304.087C226.109 304.18 227.038 304.378 227.971 304.776C225.228 305.425 222.436 305.133 219.671 305.185C216.9 305.24 214.128 305.214 211.357 305.193C208.501 305.169 205.644 305.112 202.789 305.063C199.933 305.013 197.078 304.979 194.224 304.891C191.37 304.805 188.518 304.68 185.667 304.534C182.901 304.394 180.138 304.227 177.377 304.035C174.528 303.837 171.681 303.608 168.835 303.363C165.989 303.118 163.145 302.855 160.303 302.561C157.548 302.275 154.798 301.931 152.045 301.624C149.227 301.309 146.407 301.005 143.402 300.677C144.028 303.319 144.743 305.625 145.102 307.983C146.264 315.608 147.355 323.245 148.364 330.89C150.527 347.3 152.539 363.732 154.772 380.134C156.654 393.956 158.941 407.713 162.076 421.319C162.926 425.013 164.156 428.47 166.917 431.211C167.203 431.494 167.351 431.919 167.618 432.369C166.495 433.408 165.261 433.465 163.951 433.272C159.412 432.603 154.876 431.921 150.334 431.281C146.321 430.716 142.297 430.198 138.104 429.636C138.899 422.873 136.36 416.772 134.823 410.519C132.38 400.57 130.766 390.486 129.31 380.366C127.498 367.757 125.642 355.155 123.931 342.531C122.663 333.17 121.517 323.794 120.469 314.405C119.884 309.155 119.614 303.871 119.193 298.605C119.167 298.269 119.07 297.936 118.961 297.366C116.362 296.923 113.739 296.514 111.132 296.022C107.646 295.366 104.116 294.846 100.708 293.896L100.705 293.888ZM134.805 429.006C134.015 429.105 133.682 429.219 133.375 429.175C127.493 428.334 121.602 427.548 115.743 426.572C114.228 426.32 112.533 425.859 111.709 423.605C112.899 423.576 113.887 423.394 114.81 423.558C119.559 424.409 124.29 425.343 129.026 426.265C130.989 426.648 132.822 427.335 134.805 429.003V429.006ZM213.25 591.823C211.882 586.812 210.468 581.806 209.358 576.736C204.887 556.33 199.426 536.191 193.72 516.106C190.338 504.194 187.278 492.189 184.206 480.195C183.59 477.789 183.39 475.233 183.332 472.739C183.273 470.181 184.533 469.132 187.117 469.29C195.059 469.782 203.003 470.282 210.936 470.899C213.252 471.079 215.574 471.526 217.828 472.102C219.551 472.542 221.313 473.182 222.179 475.155C221.498 476.173 220.461 476.238 219.437 476.248C214.771 476.293 210.104 476.329 205.438 476.332C202.064 476.332 198.69 476.251 195.313 476.248C194.567 476.248 193.824 476.418 192.677 476.558C195.553 489.375 198.355 501.94 201.193 514.497C206.028 535.871 210.905 557.236 215.709 578.618C216.315 581.314 216.658 584.079 216.993 586.83C217.334 589.623 216.951 592.32 215.381 594.931C213.759 594.233 213.546 592.929 213.247 591.828L213.25 591.823ZM232.429 610.008C229.728 611.522 227.399 613.701 224.607 615.815C225.811 611.106 235.795 605.562 241.428 606.384C238.171 607.66 235.114 608.5 232.429 610.008ZM292.638 453.93C292.524 453.93 292.412 453.93 292.3 453.93V457.863C292.433 457.863 292.568 457.863 292.708 457.863V462.869C292.571 462.858 292.435 462.851 292.3 462.843V469.668C292.719 469.894 292.703 470.462 292.654 471.862C292.537 471.865 292.417 471.867 292.3 471.873V473.565C292.404 473.559 292.508 473.557 292.612 473.552V477.563C292.508 477.571 292.404 477.576 292.3 477.584V529.691C292.435 529.691 292.573 529.691 292.716 529.691C292.721 531.25 292.719 531.82 292.3 532.042V597.195C292.435 597.195 292.568 597.198 292.703 597.198V599.89C292.568 599.895 292.435 599.9 292.3 599.903V621.534H286.607V600.095C285.154 600.142 283.709 600.189 282.264 600.22C271.886 600.46 261.494 600.41 251.137 600.988C242.341 601.477 233.583 602.68 224.807 603.562C223.26 603.719 221.693 604.047 220.164 603.924C219.143 603.844 218.025 603.292 217.214 602.628C216.031 601.662 215.553 599.707 216.315 599.187C217.401 598.445 218.758 598.054 220.05 597.685C220.328 597.604 220.926 598.174 221.186 598.57C222.018 599.848 223.216 600.116 224.584 599.929C233.95 598.645 243.396 598.809 252.809 598.377C258.078 598.135 263.355 597.867 268.627 597.916C273.974 597.966 279.282 598.284 284.614 597.279C285.269 597.156 285.934 597.089 286.61 597.06V532.292C279.129 532.43 271.65 532.406 264.171 532.07C258.208 531.802 252.234 531.682 246.266 531.563C244.717 531.531 243.149 531.659 241.61 531.872C239.778 532.125 239.382 532.88 239.476 534.744C239.575 536.711 239.505 538.69 239.447 540.66C239.432 541.16 239.304 541.738 239.021 542.128C238.696 542.573 238.122 543.138 237.69 543.112C237.264 543.086 236.565 542.407 236.531 541.972C236.286 538.875 235.995 535.759 236.097 532.661C236.159 530.711 237.233 529.785 239.375 529.639C243.596 529.353 247.839 529.178 252.071 529.21C263.586 529.295 275.099 529.48 286.613 529.639V477.352C286.21 477.29 285.804 477.222 285.401 477.139C284.179 476.889 282.867 476.998 281.601 477.073C280.4 477.144 279.212 477.521 278.016 477.529C264.254 477.602 250.49 477.597 236.728 477.696C233.736 477.716 231.145 476.714 228.644 475.262C228.441 475.145 228.319 474.882 227.89 474.351C230.074 473.82 231.896 473.557 233.804 473.731C235.522 473.89 237.253 473.929 238.982 473.932C246.505 473.937 254.025 473.874 261.548 473.906C265.876 473.924 270.202 474.067 274.528 474.174C275.825 474.205 277.117 474.348 278.414 474.353C280.662 474.361 282.833 474.801 285.178 474.059C285.643 473.911 286.126 473.812 286.618 473.742V472.063C280.025 472.357 273.433 472.786 266.838 472.828C260.789 472.864 254.738 472.326 248.683 472.149C242.884 471.979 237.074 472.109 231.285 471.821C223.856 471.451 216.426 470.959 209.158 469.098C207.528 468.681 205.748 468.824 204.035 468.788C202.392 468.754 200.744 468.874 199.101 468.838C197.045 468.793 196.478 467.789 197.481 466.013C197.728 465.579 198.131 465.232 198.667 464.61C196.117 463.251 193.707 462.452 191.016 462.83C189.613 463.028 188.29 462.861 186.826 461.906C187.354 461.424 187.692 460.89 188.157 460.729C190.759 459.831 193.343 458.725 196.031 458.254C200.226 457.52 204.438 457.881 208.667 458.649C211.342 459.133 214.17 458.91 216.92 458.808C219.278 458.72 221.545 458.891 224.194 459.943C223.357 460.323 222.902 460.641 222.405 460.737C215.459 462.08 208.516 462.736 201.576 460.672C200.588 460.378 199.545 460.232 198.519 460.112C197.726 460.018 196.787 460.076 196.735 461.112C196.681 462.223 197.604 462.169 198.415 462.143C199.712 462.098 201.022 461.966 202.303 462.098C204.193 462.293 204.866 463.095 205.09 464.938C208.243 465.599 211.357 466.339 214.508 466.867C215.644 467.057 216.996 467.052 218.017 466.602C219.853 465.795 221.524 465.959 223.294 466.583C224.68 467.073 226.06 467.666 227.495 467.895C228.431 468.046 229.788 467.973 230.383 467.403C232.832 465.047 235.855 464.915 238.873 464.917C241.634 464.917 244.397 465.238 247.152 465.469C249.222 465.644 251.288 466.094 253.35 466.057C255.039 466.029 256.773 465.62 258.395 465.097C261.13 464.212 261.785 464.371 263.516 467.13C263.108 467.671 262.669 468.254 262.19 468.89C262.435 469.059 262.63 469.306 262.832 469.314C265.684 469.447 268.538 469.637 271.393 469.637C276.467 469.642 281.544 469.577 286.618 469.538V462.369C282.035 461.95 277.527 462.559 273.048 463.553C269.448 464.352 265.889 464.566 262.279 463.535C261.057 463.186 259.713 463.176 258.424 463.16C254.618 463.113 250.81 463.142 247.004 463.145C241.602 463.147 236.336 462.221 231.142 460.815C230.583 460.664 230.055 460.396 229.426 459.709C230.167 459.485 230.893 459.152 231.649 459.055C236.708 458.405 241.758 457.533 246.838 457.267C251.829 457.007 256.854 457.397 261.863 457.475C270.114 457.6 278.364 457.712 286.618 457.821V453.933C286.207 453.93 285.794 453.927 285.383 453.917C274.569 453.701 263.755 453.498 252.944 453.214C240.921 452.897 228.891 452.733 216.889 452.045C208.347 451.559 199.813 450.572 191.341 449.351C179.098 447.586 166.896 445.512 154.712 443.375C138.4 440.514 122.38 436.544 107.144 429.855C105.774 429.253 104.443 428.553 103.094 427.9C103.143 427.715 103.193 427.533 103.24 427.348C104.136 427.348 105.041 427.283 105.93 427.358C113.086 427.954 120.243 428.548 127.394 429.201C131.176 429.547 134.961 429.927 138.723 430.451C140.42 430.688 142.097 431.224 143.721 431.796C144.837 432.189 145.996 432.733 146.173 434.308C144.795 435.646 142.986 435.227 141.335 435.391C139.648 435.56 137.953 435.659 136.261 435.789C136.224 436.026 136.188 436.263 136.154 436.5C136.892 436.781 137.61 437.156 138.374 437.328C146.643 439.186 154.897 441.128 163.202 442.82C176.192 445.462 189.348 447.029 202.53 448.274C213.64 449.323 224.779 450.08 235.92 450.754C251.135 451.676 266.373 451.465 281.606 451.441C283.27 451.439 284.933 451.439 286.618 451.439V306.737C272.703 306.739 258.788 306.752 244.875 306.721C241.852 306.713 238.826 306.565 235.808 306.364C234.571 306.281 233.357 305.888 231.766 305.563C232.931 303.954 234.095 303.98 235.195 303.998C240.638 304.092 246.089 304.066 251.519 304.383C263.217 305.068 274.915 305.003 286.618 304.849V3.46808H292.311V305.347C292.472 305.471 292.63 305.599 292.794 305.706C292.628 305.846 292.472 306.013 292.311 306.172V451.452C292.43 451.452 292.55 451.452 292.669 451.452C292.753 451.999 292.841 452.334 292.841 452.67C292.841 452.995 292.747 453.321 292.649 453.93H292.638ZM445.023 505.756C443.034 507.279 441.009 508.771 438.896 510.114C435.532 512.248 432.069 514.221 428.682 516.317C426.221 517.84 424.203 519.852 422.566 522.246C421.432 523.905 419.971 525.19 418.407 526.466C416.92 527.679 415.622 529.36 414.791 531.099C412.698 535.47 410.852 539.965 409.017 544.455C404.46 555.602 399.94 566.761 395.453 577.936C391.707 587.26 388.102 596.641 384.275 605.931C383.264 608.388 381.704 610.624 380.327 612.918C380.007 613.449 379.399 613.808 378.697 614.453C378.322 612.876 378.78 611.767 379.18 610.687C381.408 604.677 383.633 598.664 385.931 592.682C390.998 579.5 396.22 566.378 401.141 553.144C402.854 548.534 403.881 543.669 405.196 538.914C405.297 538.549 405.209 538.13 404.959 537.701C403.187 542.839 401.559 548.035 399.615 553.108C393.29 569.611 386.836 586.062 380.475 602.55C379.354 605.455 378.289 608.401 377.488 611.408C376.9 613.618 375.679 615.052 373.745 616.099C370.313 617.955 366.549 618.621 362.77 619.022C353.645 619.988 344.511 620.86 335.366 621.599C321.968 622.682 308.537 622.2 295.118 622.26C294.375 622.263 293.366 622.611 292.953 621.159C293.616 621.063 294.151 620.919 294.687 620.917C303 620.909 311.318 621.156 319.621 620.873C332.104 620.446 344.441 618.639 356.632 615.916C358.728 615.448 360.742 614.578 362.749 613.777C365.065 612.853 366.326 611.036 367.225 608.701C372.37 595.337 375.752 581.426 379.994 567.784C382.695 559.1 385.323 550.388 388.242 541.777C389.57 537.859 391.489 534.14 393.212 530.363C394.117 528.382 395.645 527.044 397.78 526.406C398.861 526.083 399.95 525.633 400.231 524.339C400.577 522.754 401.775 522.137 403.129 521.671C404.848 521.08 406.571 520.505 408.281 519.891C411.138 518.865 413.475 517.152 415.113 514.557C416.769 511.931 418.417 509.302 420.068 506.673L419.633 506.222C418.378 506.748 417.12 507.274 415.862 507.802C406.602 511.689 397.345 515.575 388.086 519.459C387.608 519.659 387.124 519.849 386.638 520.029C385.84 520.323 384.988 520.877 384.239 520.068C383.566 519.339 383.446 518.485 383.688 517.428C384.764 512.699 385.757 507.948 386.714 503.192C390.771 482.972 395.027 462.791 398.773 442.513C401.354 428.545 403.335 414.46 405.37 400.396C407.159 388.042 408.752 375.66 410.236 363.264C411.523 352.506 412.729 341.729 413.621 330.932C414.934 315.035 416.15 299.123 417.016 283.195C418.134 262.579 418.516 241.942 417.226 221.31C416.098 203.214 412.61 185.623 406.501 168.503C402.09 156.149 395.692 144.914 388.814 133.859C384.01 126.136 379.438 118.267 374.8 110.445C374.187 109.409 373.662 108.287 373.313 107.139C372.871 105.686 373.477 104.708 374.998 104.538C378.086 104.195 381.117 104.52 383.579 106.634C385.011 107.865 386.264 109.331 387.475 110.791C390.571 114.526 393.457 118.441 396.68 122.057C402.113 128.148 406.049 135.124 409.441 142.475C415.435 155.467 421.05 168.604 425.194 182.327C428.131 192.06 430.148 201.983 431.3 212.077C432.285 220.688 433.307 229.299 434.149 237.925C434.999 246.64 435.701 255.371 436.361 264.104C436.798 269.893 437.263 275.695 437.341 281.498C437.523 295.127 436.439 308.704 435.303 322.274C434.406 332.988 433.497 343.702 432.431 354.398C431.347 365.266 430.18 376.128 428.833 386.967C427.541 397.371 426.244 407.789 424.453 418.112C422.277 430.659 419.737 443.148 417.07 455.601C413.948 470.173 410.548 484.685 407.195 499.204C406.553 501.982 405.562 504.679 404.733 507.412C404.541 508.05 404.346 508.69 404.135 509.387C405.648 510.447 407.083 510.127 408.417 509.499C411.627 507.992 414.845 506.483 417.957 504.785C421.419 502.898 425.131 501.779 428.895 500.756C429.379 500.626 429.901 500.652 430.58 501.014C428.719 501.979 426.857 502.948 424.843 503.994C426.811 505.686 428.563 503.492 430.64 504.02C429.488 505.09 428.513 505.998 427.336 507.094C428.238 507.526 428.942 507.862 429.977 508.354C427.863 511.964 424.931 514.794 422.755 518.214C424.598 517.441 425.945 516.114 427.198 514.591C428.173 513.407 429.202 512.102 430.499 511.374C435.251 508.708 440.125 506.256 444.963 503.742C445.389 503.52 445.893 503.453 446.359 503.312L446.71 503.731C446.153 504.413 445.701 505.228 445.023 505.748V505.756ZM489.328 450.812C488.962 451.673 488.418 452.496 487.81 453.214C484.317 457.343 481.548 461.924 479.198 466.776C474.116 477.258 466.294 485.575 457.997 493.491C455.623 495.755 453.05 497.82 450.458 499.837C448.698 501.206 446.705 502.224 444.3 502.747C444.134 501.289 445.111 500.712 445.766 500.045C448.867 496.901 452.145 493.923 455.129 490.674C460.76 484.544 465.993 478.099 469.954 470.706C472.278 466.367 473.276 461.627 474.423 456.921C475.057 454.315 475.66 451.699 476.32 449.099C476.502 448.38 476.843 447.704 477.113 447.006C477.303 446.988 477.493 446.969 477.68 446.951C478.002 447.784 478.431 448.594 478.621 449.455C478.899 450.72 479.016 452.022 479.188 453.31C479.481 455.502 478.764 457.28 477.399 459.053C474.21 463.199 471.901 467.846 470.599 472.943C470.334 473.984 470.329 475.09 470.204 476.165C470.381 476.274 470.557 476.386 470.734 476.496C471.446 475.972 472.359 475.587 472.835 474.9C474.496 472.49 476.3 470.11 477.508 467.471C479.635 462.835 481.343 458.009 483.269 453.277C483.888 451.756 484.61 450.275 485.33 448.797C485.871 447.685 486.705 447.334 487.888 447.912C489.222 448.563 489.843 449.606 489.331 450.814L489.328 450.812ZM501.047 390C499.495 401.942 497.696 413.854 495.78 425.744C494.829 431.638 493.399 437.455 492.12 443.294C491.891 444.34 491.348 445.319 490.992 446.217C487.867 446.103 485.458 445.207 483.495 443.112C482.97 442.55 482.052 442.354 480.994 441.831C481.174 440.774 481.275 439.405 481.649 438.114C483.95 430.216 486.339 422.345 488.65 414.45C491.249 405.555 493.95 396.687 496.326 387.732C499.019 377.581 500.605 367.197 501.515 356.743C503.012 339.558 504.405 322.362 505.583 305.154C506.916 285.678 507.049 266.163 506.55 246.656C506.267 235.653 505.521 224.66 505.003 213.663C504.897 211.411 504.863 209.157 504.85 206.903C504.845 205.989 504.982 205.075 505.063 204.065C506.373 204.162 506.521 205.026 506.641 205.721C507.377 209.982 508.437 214.233 508.668 218.525C509.253 229.429 509.636 240.354 509.773 251.274C509.942 264.711 510.064 278.158 509.677 291.584C509.344 303.103 508.375 314.608 507.486 326.1C506.669 336.643 505.653 347.172 504.595 357.693C503.511 368.473 502.443 379.259 501.047 390.002V390ZM542.345 327.069C540.978 339.129 539.046 351.1 536.366 362.939C531.521 384.317 525.796 405.462 519.189 426.356C517.917 430.378 516.098 434.238 514.364 438.098C513.854 439.233 512.903 440.277 511.915 441.063C510.129 442.482 508.575 441.987 508.013 439.798C507.457 437.627 507.163 435.381 506.844 433.155C505.656 424.885 505.593 416.587 506.238 408.265C507.104 397.041 507.881 385.806 508.697 374.577C508.733 374.064 508.788 373.551 508.887 372.434C509.906 376.612 509.347 380.194 508.947 383.755C507.644 395.31 506.636 406.87 507.839 418.5C508.006 420.106 508.364 421.691 508.668 423.477C509.303 423.209 509.687 423.162 509.888 422.944C513.345 419.143 516.511 415.129 518.19 410.183C521.276 401.086 524.458 392.014 527.281 382.833C530.026 373.897 532.607 364.896 534.814 355.814C536.384 349.348 537.133 342.687 538.409 336.146C539.054 332.845 540.039 329.607 540.933 326.358C541.092 325.78 541.57 325.288 541.9 324.755C542.054 324.802 542.207 324.846 542.36 324.893C542.36 325.619 542.431 326.35 542.35 327.066L542.345 327.069ZM543.478 315.605C543.335 316.86 542.834 318.125 542.246 319.257C541.859 320.004 541.022 320.52 540.416 321.11C538.976 320.077 539.337 318.877 539.452 317.81C539.743 315.139 540.091 312.476 540.491 309.819C541.75 301.497 541.222 293.227 539.764 284.993C538.942 280.352 536.86 276.271 533.644 272.863C529.425 268.394 525.056 264.07 520.756 259.679C519.563 258.461 518.38 257.235 516.792 255.6C517.92 255.444 518.471 255.241 518.975 255.319C521.003 255.636 522.807 256.441 524.018 258.193C527.637 263.425 532.355 267.688 536.496 272.46C538.134 274.347 539.584 276.414 540.98 278.494C542.808 281.219 543.613 284.343 543.821 287.576C544.419 296.926 544.549 306.278 543.481 315.608L543.478 315.605Z" fill="black"/>
</svg>
