<svg width="2116" height="2402" viewBox="0 0 2116 2402" fill="none" xmlns="http://www.w3.org/2000/svg">
<g clip-path="url(#clip0_2099_2598)">
<mask id="mask0_2099_2598" style="mask-type:luminance" maskUnits="userSpaceOnUse" x="0" y="0" width="2116" height="2402">
<path d="M2115.87 0H0.0300293V2401.08H2115.87V0Z" fill="white"/>
</mask>
<g mask="url(#mask0_2099_2598)">
<path d="M2114.95 917.24L2115.02 917.27C2114.4 890.4 2108.53 864.49 2097.72 839.7C2092.75 828.3 2085.88 818.94 2075.19 812.51C2051.8 798.42 2028.61 783.97 2004.9 770.44C1996.71 765.77 1993.12 760.1 1992.36 750.83C1991.21 736.93 1989.44 722.97 1986.51 709.35C1981.05 683.95 1974.28 658.84 1968.58 633.5C1960.07 595.69 1946.22 560.32 1923.08 528.89C1905.66 505.23 1890.8 480.1 1879.28 452.95C1873.73 439.87 1865.4 428.18 1856.16 417.16C1856.55 420.49 1857.61 423.48 1858.99 426.32C1864.65 438 1870.53 449.58 1876.11 461.31C1891.42 493.5 1905.73 526.11 1915.57 560.47C1916.56 563.94 1917.33 567.7 1917.02 571.22C1916.84 573.3 1914.67 576.35 1912.82 576.84C1910.89 577.35 1907.82 575.84 1906.1 574.27C1904.53 572.84 1903.95 570.21 1903.22 568.01C1899.76 557.58 1896.58 547.06 1892.97 536.69C1880.28 500.18 1866.24 464.21 1847.37 430.36C1827.71 395.08 1804.75 361.98 1780.35 329.84C1767.37 312.74 1752.39 297.7 1734.73 285.37C1729 281.37 1723.46 277.07 1718.07 272.61C1716.31 271.16 1715.34 268.77 1713.48 266.04C1722.81 263.53 1730.15 264.33 1736.22 269.97C1744.01 277.22 1751.6 284.7 1758.91 292.43C1773.53 307.86 1787.9 323.52 1802.37 339.08C1802.9 338.67 1803.43 338.26 1803.95 337.84C1797.04 328.7 1790.42 319.33 1783.17 310.47C1750.17 270.09 1712.54 234.24 1673.54 199.82C1577.34 114.91 1467.02 56.4499 1342.49 25.6099C1283.85 11.0899 1224.04 3.50986 1163.6 1.13986C1091.86 -1.67014 1020.26 0.489856 949.27 11.0699C856.94 24.8199 769.25 53.9299 686.44 97.0099C600.81 141.55 525.55 200.15 458.86 269.64C378.17 353.72 318.76 450.57 286.52 563.17C274.6 604.8 263.25 646.59 251.76 688.34C249.67 695.94 245.81 702.26 240.66 708.15C233.88 715.91 227.23 723.85 221.23 732.21C212.29 744.65 203.93 757.51 195.38 770.24C165.58 814.63 139.08 860.75 121.2 911.41C118.37 919.44 113.77 926.47 106.83 931.44C88.5201 944.54 76.1201 962.71 63.8101 980.94C56.2701 992.11 50.7601 1004.15 49.6801 1017.86C49.1001 1025.17 46.1801 1031.49 40.3701 1036.02C32.4601 1042.2 27.1801 1050.33 23.8401 1059.41C18.6901 1073.43 12.7601 1087.52 10.3001 1102.12C1.41005 1154.81 -2.08995 1207.89 1.23005 1261.39C4.06005 1307 7.74005 1352.45 17.3801 1397.21C18.4201 1402.05 19.2901 1407.41 21.9901 1411.32L26.4401 1411.64C26.8201 1412.7 27.3301 1413.74 28.0101 1414.72C38.4801 1429.94 48.8801 1445.22 59.4201 1460.4L45.9501 1443.06C48.0401 1445.87 49.8501 1449.12 50.8601 1452.46C53.5601 1461.35 56.1501 1470.21 64.0101 1479.47C64.2301 1474.27 64.6201 1470.92 64.5201 1467.74C64.7101 1468.01 64.9 1468.29 65.09 1468.56C70.68 1476.54 76.4501 1484.26 82.7301 1491.49C82.2901 1492 81.8501 1492.5 81.3801 1493C79.6301 1494.88 77.9501 1496.83 75.6901 1499.36C89.7101 1518.12 103.24 1536.6 121.9 1550.59C127.01 1554.43 132.82 1555.61 138.91 1555.02C151.17 1553.84 163.47 1552.81 175.59 1550.76C183.66 1549.39 190.71 1549.84 197.15 1555.22C198.19 1556.09 199.86 1556.21 202.17 1556.99C201.72 1553.31 201.36 1550.72 201.1 1548.12C199.18 1528.9 196.94 1509.71 195.5 1490.46C194.99 1483.64 194.65 1480.76 191.46 1478.91C190.96 1465.08 188.66 1451.55 184.81 1438.38C183.32 1428.08 181.67 1417.8 180.21 1407.49C174.01 1363.64 167.47 1319.84 161.84 1275.91C156.76 1236.28 153.04 1196.47 148.09 1156.81C144.51 1128.08 139.66 1099.5 135.89 1070.79C134.77 1062.27 134.89 1053.5 135.35 1044.89C135.69 1038.59 138.64 1036.76 144.84 1037.99C150.38 1039.09 156.06 1040.2 161.2 1042.41C176.66 1049.09 192.08 1055.9 207.58 1062.77C209.6 1063.44 211.56 1064.28 213.4 1065.35C215.91 1066.47 218.42 1067.57 220.94 1068.69C226.66 1069.85 232.49 1070.53 238.03 1072.5C247.18 1075.76 253.01 1078.89 259.91 1084.3C268.64 1085.33 276.9 1088.09 284.68 1092.6C285.45 1093.01 286.23 1093.41 287 1093.8C300.94 1098.72 315.49 1101.77 330.11 1104.03C334.94 1104.59 339.78 1105.08 344.62 1105.54C344.69 1105.38 344.75 1105.23 344.82 1105.07C348.2 1097.49 351.9 1089.97 356.25 1082.9C384.57 1036.9 416.1 993.14 449.24 950.52C452.28 946.61 455.8 942.82 459.83 940.04C462.85 937.95 467.17 936.35 470.7 936.69C476.04 937.21 478.11 934.83 479.36 930.64C480.02 928.43 480.34 926.08 480.47 923.78C480.66 920.46 480.91 917.07 480.49 913.8C478.45 897.99 483.9 886.52 499.04 880.2C506.97 876.89 508.64 869.87 509.28 862.22C510.18 851.53 512.21 849.53 522.62 849.21C529.82 848.99 537.04 849.17 544.25 849.17C544.74 850.19 545.23 851.21 545.73 852.23C543.44 855.26 541.4 858.54 538.79 861.27C533.51 866.81 527.97 872.12 522.44 877.42C515.68 883.91 513.68 891.34 517.73 900.04C519.55 903.96 521.29 907.92 523.35 911.71C526.06 916.7 525.61 921.27 522.21 925.67C520.58 927.78 518.97 929.9 517.28 931.96C513.09 937.08 510.76 942.82 511.73 949.51C513.66 962.91 508.89 974.39 501.63 985.13C476.96 1021.58 455.5 1059.92 434.3 1098.44C431.85 1102.89 428.16 1106.68 424.26 1111.55C436.36 1113.23 446.66 1115.66 458.51 1122.22C458.88 1122.43 459.25 1122.65 459.63 1122.87C462.25 1123.56 464.86 1124.24 467.49 1124.88C498.22 1132.39 529.25 1137.92 560.53 1141.91C560.84 1141.88 561.15 1141.85 561.46 1141.83C575.22 1140.97 588.62 1143.11 601.85 1146.3C605.37 1146.6 608.89 1146.89 612.42 1147.16C674.16 1151.88 735.91 1156.58 797.63 1161.55C820.52 1163.39 843.36 1165.92 866.22 1168.21C868.81 1168.47 871.37 1168.95 873.94 1169.76C881.4 1169.64 888.87 1169.54 896.35 1169.41C899.22 1167.78 902.06 1167.83 904.79 1167.87C925.73 1168.23 946.7 1168.13 967.59 1169.35C1012.59 1171.98 1057.59 1171.73 1102.61 1171.14V13.3399H1124.51V1173.06C1125.13 1173.54 1125.74 1174.03 1126.37 1174.44C1125.73 1174.98 1125.13 1175.62 1124.51 1176.23V1734.35H1125.89C1126.21 1736.45 1126.55 1737.74 1126.55 1739.03C1126.55 1740.32 1126.19 1741.53 1125.81 1743.87H1124.47V1758.98H1126.04V1778.21C1125.51 1778.17 1124.99 1778.14 1124.47 1778.11V1804.33C1126.08 1805.2 1126.02 1807.38 1125.83 1812.76C1125.38 1812.77 1124.92 1812.78 1124.47 1812.8V1819.3C1124.87 1819.28 1125.27 1819.27 1125.67 1819.25V1834.66C1125.27 1834.69 1124.87 1834.71 1124.47 1834.74V2034.92H1126.07C1126.09 2040.91 1126.08 2043.1 1124.47 2043.95V2294.25C1124.99 2294.25 1125.5 2294.26 1126.02 2294.26V2304.6C1125.5 2304.62 1124.99 2304.64 1124.47 2304.65V2387.75H1102.57V2305.39C1099.34 2305.49 1096.11 2305.59 1092.89 2305.69C1081.45 2314.75 1067.29 2319.24 1052.66 2319.9C995.99 2322.48 939.29 2324.99 882.55 2325.02C873.76 2325.35 865.57 2323.53 857.96 2319.56C854.28 2320.02 850.6 2320.39 846.98 2320.1C843.05 2319.79 838.75 2317.67 835.63 2315.12C831.08 2311.41 829.24 2303.9 832.17 2301.9C832.35 2301.78 832.55 2301.67 832.73 2301.55C830.62 2299.01 828.73 2296.24 827.1 2293.21C826.98 2292.91 826.85 2292.62 826.73 2292.32C821.82 2286.44 818.08 2279.54 816.03 2272.34C812.97 2261.6 812.08 2250.2 811.06 2239.06C809.05 2231.28 807.14 2223.48 805.42 2215.64C788.22 2137.25 767.21 2059.88 745.26 1982.72C732.25 1936.96 720.48 1890.84 708.66 1844.76C706.29 1835.52 705.52 1825.7 705.3 1816.12C705.07 1806.29 709.92 1802.26 719.86 1802.87C750.41 1804.76 780.97 1806.68 811.49 1809.05C820.4 1809.74 829.33 1811.46 838 1813.67C840.67 1814.35 843.36 1815.16 845.85 1816.38C861.1 1817.28 876.32 1818.53 891.54 1819.84C894.19 1819.67 896.81 1819.69 899.46 1819.93C906.07 1820.54 912.73 1820.69 919.38 1820.7C948.32 1820.72 977.25 1820.48 1006.19 1820.6C1022.84 1820.67 1039.48 1821.22 1056.12 1821.63C1061.11 1821.75 1066.08 1822.3 1071.07 1822.32C1079.72 1822.35 1088.07 1824.04 1097.09 1821.19C1098.88 1820.62 1100.74 1820.24 1102.63 1819.97V1813.52C1077.27 1814.65 1051.91 1816.3 1026.54 1816.46C1003.27 1816.6 979.99 1814.53 956.7 1813.85C934.39 1813.2 912.04 1813.7 889.77 1812.59C861.19 1811.17 832.61 1809.28 804.65 1802.13C798.38 1800.53 791.53 1801.08 784.94 1800.94C778.62 1800.81 772.28 1801.27 765.96 1801.13C758.05 1800.96 755.87 1797.1 759.73 1790.28C760.68 1788.61 762.23 1787.28 764.29 1784.89C754.48 1779.67 745.21 1776.6 734.86 1778.05C729.46 1778.81 724.37 1778.17 718.74 1774.5C720.77 1772.65 722.07 1770.6 723.86 1769.98C733.87 1766.53 743.81 1762.28 754.15 1760.47C770.29 1757.65 786.49 1759.04 802.76 1761.99C813.05 1763.85 823.93 1762.99 834.51 1762.6C843.58 1762.26 852.3 1762.92 862.49 1766.96C859.27 1768.42 857.52 1769.64 855.61 1770.01C828.89 1775.17 802.18 1777.69 775.48 1769.76C771.68 1768.63 767.67 1768.07 763.72 1767.61C760.67 1767.25 757.06 1767.47 756.86 1771.45C756.65 1775.72 760.2 1775.51 763.32 1775.41C768.31 1775.24 773.35 1774.73 778.28 1775.24C785.55 1775.99 788.14 1779.07 789 1786.15C801.13 1788.69 813.11 1791.53 825.23 1793.56C829.6 1794.29 834.8 1794.27 838.73 1792.54C845.79 1789.44 852.22 1790.07 859.03 1792.47C864.36 1794.35 869.67 1796.63 875.19 1797.51C878.79 1798.09 884.01 1797.81 886.3 1795.62C895.72 1786.57 907.35 1786.06 918.96 1786.07C929.58 1786.07 940.21 1787.3 950.81 1788.19C958.77 1788.86 966.72 1790.59 974.65 1790.45C981.15 1790.34 987.82 1788.77 994.06 1786.76C1004.58 1783.36 1007.1 1783.97 1013.76 1794.57C1012.19 1796.65 1010.5 1798.89 1008.66 1801.33C1009.6 1801.98 1010.35 1802.93 1011.13 1802.96C1022.1 1803.47 1033.08 1804.2 1044.06 1804.2C1063.58 1804.22 1083.11 1803.97 1102.63 1803.82V1776.28C1085 1774.67 1067.66 1777.01 1050.43 1780.83C1036.58 1783.9 1022.89 1784.72 1009 1780.76C1004.3 1779.42 999.13 1779.38 994.17 1779.32C979.53 1779.14 964.88 1779.25 950.24 1779.26C929.46 1779.27 909.2 1775.71 889.22 1770.31C887.07 1769.73 885.04 1768.7 882.62 1766.06C885.47 1765.2 888.26 1763.92 891.17 1763.55C910.63 1761.05 930.06 1757.7 949.6 1756.68C968.8 1755.68 988.13 1757.18 1007.4 1757.48C1039.14 1757.96 1070.88 1758.39 1102.63 1758.81V1743.87C1101.05 1743.86 1099.46 1743.85 1097.88 1743.81C1059.14 1743.04 1020.41 1742.3 981.68 1741.32C965.44 1742.84 949.12 1743.19 932.76 1742.34C918.92 1741.62 905.12 1740.31 891.32 1739.03C872.34 1738.44 853.36 1737.71 834.4 1736.62C801.54 1734.75 768.71 1730.96 736.12 1726.27C689.02 1719.49 642.08 1711.52 595.21 1703.31C582.76 1701.13 570.36 1698.78 558.02 1696.22C552.03 1695.14 545.48 1694.32 539.61 1692.22C506.06 1684.6 473.01 1675.16 440.76 1662.97C440.31 1662.9 439.86 1662.84 439.42 1662.77C429.94 1661.23 420.55 1657.49 410.88 1657.9C409.53 1657.96 408.23 1657.75 407 1657.34C401.62 1657.22 396.38 1652.84 395.01 1647.84C393.07 1640.78 397.46 1634.7 403.83 1632.23C400.14 1631.13 396.43 1630.1 392.69 1629.21C361.21 1621.7 329.32 1616.62 300.72 1600.27C291.92 1598.02 283.29 1595.07 274.83 1590.95C266.56 1586.93 259.14 1581.43 251.15 1576.94C250.89 1576.81 250.63 1576.67 250.36 1576.54C246.79 1575.84 243.22 1575.24 239.66 1574.71C237.71 1574.42 235.81 1573.87 233.98 1573.11C232.13 1574.16 229.58 1574.93 228.6 1577.65C252.35 1592.23 276.01 1607.07 300.04 1621.29C305.85 1624.73 310.39 1628.31 311.99 1635.01C315.08 1647.96 318.72 1660.8 321.27 1673.85C330.25 1719.95 339.47 1766.01 347.45 1812.29C354.63 1853.96 371.8 1890.96 396.07 1925.07C399.55 1929.96 402.99 1934.86 406.52 1939.72C440.42 1986.43 477.49 2030.57 516.03 2073.46C601.99 2169.14 689.51 2263.36 780.39 2354.43C789.34 2363.4 799.6 2369.82 811.68 2373.28C824.49 2376.95 837.36 2380.4 850.24 2383.78C891.96 2394.75 934.16 2401.42 977.55 2401.03C1056.85 2400.31 1136.16 2401.01 1215.45 2400.41C1257.41 2400.09 1299.43 2400.88 1341.27 2396.34C1383.35 2391.77 1425.25 2386.45 1466.26 2375.36C1517.99 2361.37 1565.59 2339.24 1608.5 2306.86C1647.36 2277.54 1685.18 2247.07 1720.93 2213.95C1769.44 2169 1810.75 2118.37 1844.75 2061.71C1855.4 2043.96 1865.29 2025.74 1870.96 2005.73C1879.22 1976.57 1886.9 1947.25 1894.59 1917.93C1897.27 1907.72 1898.73 1906.1 1909.18 1905.23C1910.83 1905.09 1912.53 1905 1914.11 1904.55C1934.28 1898.79 1954.34 1892.65 1974.62 1887.29C1985.11 1884.52 1990.17 1878.05 1991.82 1867.84C1993.8 1855.68 1995.89 1843.53 1998.25 1831.44C2004.94 1797.11 2012.27 1762.89 2018.47 1728.47C2026.31 1684.87 2033.43 1641.13 2040.6 1597.41C2055.53 1506.35 2071 1415.37 2084.85 1324.15C2092.94 1270.81 2097.84 1217 2105.08 1163.52C2111.21 1118.22 2115.76 1072.85 2115.84 1027.13C2115.9 990.49 2115.86 953.84 2115.01 917.22L2114.95 917.24ZM399.54 480.82C390.07 498.78 380.1 516.47 371.01 534.61C364.61 547.38 359.4 560.73 353.48 573.75C351.85 577.34 349.92 580.88 347.52 583.99C346.62 585.16 343.68 585.85 342.3 585.27C340.93 584.69 339.37 582.07 339.62 580.64H339.64C340.47 575.79 341.45 570.78 343.48 566.33C349.96 552.11 356.68 537.98 363.78 524.05C391.05 470.53 421.29 418.86 460.74 373.21C479.67 351.31 499.28 329.97 519 308.77C525.07 302.24 532.57 297.04 539.4 291.22C547.23 284.55 555.4 278.24 562.77 271.1C570.08 264.02 578.32 260.26 588.15 259.81C588.71 260.63 589.27 261.45 589.83 262.26C586.77 265.03 583.84 267.94 580.64 270.53C567.46 281.22 553.51 291.08 541.08 302.57C484.76 354.67 435.54 412.52 399.54 480.82ZM645.28 404.32C643.83 410.62 640.75 416.76 637.38 422.37C631.57 432.06 624.37 440.93 618.86 450.76C603.45 478.29 594.53 508.26 587.53 538.81C576.34 587.64 570.15 637.19 570.2 687.24C570.23 716.13 572.74 745.07 575.31 773.88C576.15 783.24 580.82 792.24 583.54 801.46C586.12 810.24 582.92 814.67 573.75 815.39C572.43 815.49 571.07 815.58 569.76 815.42C552.95 813.33 536.12 811.39 519.37 808.97C512.89 808.03 506.57 805.97 499.65 804.29C500.19 797.33 497.62 792.96 491.93 791.17C488.84 790.19 485.76 789.16 480.94 787.59C492.43 781.97 493.39 772.61 493.35 762.87C493.29 746.23 493.62 729.57 492.99 712.95C491.55 675.41 495.92 638.59 504.96 602.18C515.25 560.77 528.37 520.37 545.54 481.28C556 457.47 570.2 436.4 589.53 418.95C600.15 409.36 610.99 400 621.93 390.78C626.51 386.92 631.5 382.94 638.06 387.04C644.51 391.07 646.83 397.56 645.28 404.32ZM894.13 2343.47C883.74 2349.29 874.78 2357.66 864.04 2365.78C868.67 2347.69 907.08 2326.39 928.75 2329.55C916.22 2334.45 904.46 2337.68 894.13 2343.47ZM1983.47 1044.98C1983.97 1036.08 1985.83 1027.14 1988.14 1018.51C1990.41 1010.04 1994.91 1009.02 2000.85 1015.33C2004.43 1019.14 2007.51 1023.68 2009.79 1028.39C2012.68 1034.35 2014.35 1040.88 2016.87 1047.03C2020.26 1055.32 2023.35 1063.83 2027.65 1071.64C2033.78 1082.75 2037.16 1094.33 2036.64 1106.96C2036.04 1121.6 2035.21 1136.23 2034.47 1150.86C2033.86 1162.83 2035.51 1173.97 2043.94 1183.49C2047.8 1187.85 2048.69 1193.49 2045.67 1200.59C2041.98 1198.57 2038.35 1197.19 2035.47 1194.87C2027.68 1188.62 2020.01 1182.2 2012.68 1175.42C2007.38 1170.52 2002.53 1169.1 1995.77 1173C1987.58 1177.72 1984.22 1176.12 1983.3 1166.6C1981.81 1151.06 1980.63 1135.41 1980.77 1119.81C1980.99 1094.86 1982.09 1069.9 1983.48 1044.98H1983.47ZM1976.31 1256.48C1976.81 1252.66 1978.48 1248.69 1980.63 1245.47C1987.54 1235.12 1998.43 1234.89 2006.21 1244.5C2013.25 1253.19 2016.13 1263.25 2015.96 1274.24C2015.86 1280.82 2013.92 1286.63 2008.19 1290.73C1999.94 1296.64 1996.69 1304.95 1996.61 1314.94C1996.55 1322.59 1995.93 1330.25 1995.42 1337.89C1995.28 1340.03 1994.65 1342.13 1994.24 1344.25C1993.59 1344.5 1992.94 1344.74 1992.29 1344.99C1990.32 1342.19 1987.77 1339.63 1986.51 1336.55C1983.37 1328.88 1979.98 1321.15 1978.2 1313.11C1974.07 1294.43 1973.81 1275.43 1976.31 1256.48ZM1711.96 1942.94V1942.97C1704.31 1948.82 1696.52 1954.55 1688.39 1959.71C1675.45 1967.91 1662.13 1975.49 1649.1 1983.54C1639.63 1989.39 1631.87 1997.12 1625.57 2006.32C1621.21 2012.69 1615.59 2017.63 1609.57 2022.53C1603.85 2027.19 1598.86 2033.65 1595.66 2040.33C1587.61 2057.12 1580.51 2074.39 1573.45 2091.64C1555.92 2134.46 1538.53 2177.33 1521.27 2220.26C1506.86 2256.08 1492.99 2292.12 1478.27 2327.81C1474.38 2337.25 1468.38 2345.84 1463.08 2354.65C1461.85 2356.69 1459.51 2358.07 1456.81 2360.55C1455.37 2354.49 1457.13 2350.23 1458.67 2346.08C1467.24 2322.99 1475.8 2299.89 1484.64 2276.91C1504.13 2226.27 1524.22 2175.86 1543.15 2125.02C1549.74 2107.31 1553.69 2088.62 1558.75 2070.35C1559.14 2068.95 1558.8 2067.34 1557.84 2065.69C1551.02 2085.43 1544.76 2105.39 1537.28 2124.88C1512.95 2188.28 1488.12 2251.48 1463.65 2314.82C1459.34 2325.98 1455.24 2337.3 1452.16 2348.85C1449.9 2357.34 1445.2 2362.85 1437.76 2366.87C1424.56 2374 1410.08 2376.56 1395.54 2378.1C1360.44 2381.81 1325.3 2385.16 1290.12 2388C1238.58 2392.16 1186.91 2390.31 1135.29 2390.54C1132.43 2390.55 1128.55 2391.89 1126.96 2386.31C1129.51 2385.94 1131.57 2385.39 1133.63 2385.38C1165.61 2385.35 1197.61 2386.3 1229.55 2385.21C1277.57 2383.57 1325.03 2376.63 1371.93 2366.17C1379.99 2364.37 1387.74 2361.03 1395.46 2357.95C1404.37 2354.4 1409.22 2347.42 1412.68 2338.45C1432.47 2287.11 1445.48 2233.67 1461.8 2181.26C1472.19 2147.9 1482.3 2114.43 1493.53 2081.35C1498.64 2066.3 1506.02 2052.01 1512.65 2037.5C1516.13 2029.89 1522.01 2024.75 1530.22 2022.3C1534.38 2021.06 1538.57 2019.33 1539.65 2014.36C1540.98 2008.27 1545.59 2005.9 1550.8 2004.11C1557.32 2001.87 1563.87 1999.69 1570.36 1997.36C1568.57 1997.27 1566.78 1997.2 1564.99 1997.17L1527.21 2002.25C1526.19 2002.25 1525.19 2002.22 1524.17 2002.19C1498.07 2008.2 1472.46 2016.56 1446.76 2023.94C1411.88 2033.95 1376.74 2041.33 1340.42 2043.36C1328.66 2044.02 1316.93 2045.08 1305.16 2045.6C1286.26 2046.43 1268.53 2044.83 1249.74 2042.16C1244.54 2041.42 1239.46 2040.39 1234.52 2038.6C1226.95 2035.86 1218.62 2032.92 1211.65 2028.59C1210.67 2027.98 1209.72 2027.36 1208.77 2026.72C1173.07 2023.82 1144 1989.84 1144 1954.46V112.28C1144 71.6899 1177.18 41.6299 1216.41 39.8699C1232.97 39.1299 1248.48 45.2299 1260.87 55.3599C1263.28 55.2099 1265.73 55.1699 1268.21 55.2599C1293.23 58.4899 1317.26 61.9299 1341.13 70.1099C1377.73 82.6499 1412.75 99.8299 1446.13 119.29C1467.68 131.85 1488.76 145.18 1510.18 157.96C1535.62 168.44 1560.46 178.72 1583.89 193.17C1608.73 208.49 1631.58 226.91 1654.49 244.88C1667.49 255.08 1680 265.91 1692.02 277.24C1720.51 304.11 1744.91 333.97 1768.28 365.33C1779.34 379.83 1790.01 394.58 1799.56 410.2C1808.39 424.65 1816.41 439.58 1823.69 454.88C1835.51 479.73 1846.16 505.21 1855.99 530.9C1861.48 545.26 1866.42 559.83 1870.84 574.54C1879.77 604.24 1886.65 634.54 1891.91 665.1C1904.07 735.79 1911.2 807.27 1911.68 878.99C1911.83 882.39 1911.86 885.82 1911.73 889.29C1911.73 897.93 1911.77 906.57 1911.83 915.21C1912.34 987.01 1914.44 1058.84 1912.02 1130.63C1909.67 1200.46 1904.82 1269.87 1896.04 1339.21C1885.55 1422.05 1872.76 1504.43 1856.57 1586.35C1850.38 1617.68 1843.72 1649.02 1834.38 1679.58C1826.36 1705.84 1815.39 1730.9 1804.5 1756.11C1798.27 1770.53 1791.12 1784.51 1782.86 1797.87C1778.66 1804.67 1774.23 1811.35 1769.54 1817.82C1757.72 1834.15 1745.48 1850.39 1732.19 1865.59C1722.52 1876.65 1711.93 1886.86 1701.01 1896.68C1686.19 1910 1670.86 1922.72 1656.22 1936.21C1656.35 1936.24 1656.49 1936.26 1656.62 1936.3C1652.4 1940.22 1648.79 1943.58 1644.54 1947.53C1644.44 1947.78 1644.35 1948.03 1644.25 1948.27C1647.56 1949.85 1650.22 1951.12 1654.07 1952.95C1645.94 1966.82 1634.66 1977.69 1626.29 1990.83C1633.38 1987.86 1638.56 1982.76 1643.38 1976.91C1647.13 1972.36 1651.09 1967.35 1656.08 1964.55C1674.36 1954.31 1693.11 1944.89 1711.72 1935.23C1713.36 1934.38 1715.3 1934.12 1717.09 1933.58L1718.44 1935.19C1716.3 1937.81 1714.56 1940.94 1711.95 1942.94H1711.96ZM1882.41 1731.9H1882.4C1880.99 1735.2 1878.9 1738.36 1876.56 1741.12C1863.12 1756.98 1852.47 1774.58 1843.43 1793.22C1823.88 1833.49 1793.79 1865.44 1761.87 1895.85C1752.74 1904.55 1742.84 1912.48 1732.87 1920.23C1726.1 1925.49 1718.43 1929.4 1709.18 1931.41C1708.54 1925.81 1712.3 1923.59 1714.82 1921.03C1726.75 1908.95 1739.36 1897.51 1750.84 1885.03C1772.5 1861.48 1792.63 1836.72 1807.87 1808.32C1816.81 1791.65 1820.65 1773.44 1825.06 1755.36C1827.5 1745.35 1829.82 1735.3 1832.36 1725.31C1833.06 1722.55 1834.37 1719.95 1835.41 1717.27C1836.14 1717.2 1836.87 1717.13 1837.59 1717.06C1838.83 1720.26 1840.48 1723.37 1841.21 1726.68C1842.28 1731.54 1842.73 1736.54 1843.39 1741.49C1844.52 1749.91 1841.76 1756.74 1836.51 1763.55C1824.24 1779.48 1815.36 1797.33 1810.35 1816.91C1809.33 1820.91 1809.31 1825.16 1808.83 1829.29C1809.51 1829.71 1810.19 1830.14 1810.87 1830.56C1813.61 1828.55 1817.12 1827.07 1818.95 1824.43C1825.34 1815.17 1832.28 1806.03 1836.93 1795.89C1845.11 1778.08 1851.68 1759.54 1859.09 1741.36C1861.47 1735.52 1864.25 1729.83 1867.02 1724.15C1869.1 1719.88 1872.31 1718.53 1876.86 1720.75C1881.99 1723.25 1884.38 1727.26 1882.41 1731.9ZM1927.48 1498.28C1921.51 1544.15 1914.59 1589.91 1907.22 1635.59C1903.56 1658.23 1898.06 1680.58 1893.14 1703.01C1892.26 1707.03 1890.17 1710.79 1888.8 1714.24C1876.78 1713.8 1867.51 1710.36 1859.96 1702.31C1857.94 1700.15 1854.41 1699.4 1850.34 1697.39C1851.03 1693.33 1851.42 1688.07 1852.86 1683.11C1861.71 1652.77 1870.9 1622.53 1879.79 1592.2C1889.79 1558.03 1900.18 1523.96 1909.32 1489.56C1919.68 1450.56 1925.78 1410.67 1929.28 1370.51C1935.04 1304.49 1940.4 1238.43 1944.93 1172.32C1950.06 1097.5 1950.57 1022.53 1948.65 947.59C1947.56 905.32 1944.69 863.09 1942.7 820.84C1942.29 812.19 1942.16 803.53 1942.11 794.87C1942.09 791.36 1942.62 787.85 1942.93 783.97C1947.97 784.34 1948.54 787.66 1949 790.33C1951.83 806.7 1955.91 823.03 1956.8 839.52C1959.05 881.41 1960.52 923.38 1961.05 965.33C1961.7 1016.95 1962.17 1068.61 1960.68 1120.19C1959.4 1164.44 1955.67 1208.64 1952.25 1252.79C1949.11 1293.29 1945.2 1333.74 1941.13 1374.16C1936.96 1415.57 1932.85 1457.01 1927.48 1498.28ZM2086.37 1256.5H2086.35C2081.09 1302.84 2073.66 1348.83 2063.35 1394.31C2044.71 1476.44 2022.69 1557.67 1997.27 1637.94C1992.38 1653.39 1985.38 1668.22 1978.71 1683.05C1976.75 1687.41 1973.09 1691.42 1969.29 1694.44C1962.42 1699.89 1956.44 1697.99 1954.28 1689.58C1952.14 1681.24 1951.01 1672.61 1949.78 1664.06C1945.21 1632.29 1944.97 1600.41 1947.45 1568.44C1950.78 1525.32 1953.77 1482.16 1956.91 1439.02C1957.05 1437.05 1957.26 1435.08 1957.64 1430.79C1961.56 1446.84 1959.41 1460.6 1957.87 1474.28C1952.86 1518.67 1948.98 1563.08 1953.61 1607.76C1954.25 1613.93 1955.63 1620.02 1956.8 1626.88C1959.24 1625.85 1960.72 1625.67 1961.49 1624.83C1974.79 1610.23 1986.97 1594.81 1993.43 1575.81C2005.3 1540.86 2017.54 1506.01 2028.4 1470.74C2038.96 1436.41 2048.89 1401.83 2057.38 1366.94C2063.42 1342.1 2066.3 1316.51 2071.21 1291.38C2073.69 1278.7 2077.48 1266.26 2080.92 1253.78C2081.53 1251.56 2083.37 1249.67 2084.64 1247.62C2085.23 1247.8 2085.82 1247.97 2086.41 1248.15C2086.41 1250.94 2086.68 1253.75 2086.37 1256.5ZM2090.72 1212.48H2090.71C2090.16 1217.29 2088.23 1222.15 2085.97 1226.5C2084.48 1229.37 2081.26 1231.35 2078.93 1233.62C2073.39 1229.65 2074.78 1225.04 2075.22 1220.94C2076.34 1210.68 2077.68 1200.45 2079.22 1190.24C2084.06 1158.27 2082.03 1126.5 2076.42 1094.87C2073.26 1077.04 2065.25 1061.36 2052.88 1048.27C2036.65 1031.1 2019.84 1014.49 2003.3 997.62C1998.71 992.94 1994.16 988.23 1988.05 981.95C1992.39 981.35 1994.51 980.57 1996.45 980.87C2004.25 982.09 2011.19 985.18 2015.85 991.91C2029.77 1012.01 2047.92 1028.39 2063.85 1046.72C2070.15 1053.97 2075.73 1061.91 2081.1 1069.9C2088.13 1080.37 2091.23 1092.37 2092.03 1104.79C2094.33 1140.71 2094.83 1176.64 2090.72 1212.48Z" fill="black"/>
</g>
</g>
<defs>
<clipPath id="clip0_2099_2598">
<rect width="2115.87" height="2401.08" fill="white"/>
</clipPath>
</defs>
</svg>
