<svg width="2114" height="2401" viewBox="0 0 2114 2401" fill="none" xmlns="http://www.w3.org/2000/svg">
<path d="M2113.14 916.506C2112.54 889.682 2106.65 863.765 2095.88 839.004C2090.9 827.63 2084.06 818.27 2073.39 811.828C2050.04 797.737 2026.85 783.293 2003.14 769.806C1994.94 765.126 1991.37 759.489 1990.62 750.229C1989.46 736.339 1987.7 722.399 1984.78 708.761C1979.34 683.396 1972.55 658.284 1966.86 632.97C1958.41 595.326 1944.62 560.098 1921.63 528.795C1903.96 483.3 1884.69 438.863 1857.17 397.696C1837.84 368.809 1819.43 339.016 1797.89 311.689C1790.74 302.63 1782.79 294.377 1774.59 286.375C1774.59 285.52 1774.59 284.614 1774.54 283.758C1766.29 273.643 1759.14 262.571 1753.15 250.744C1703.09 198.305 1645.22 160.258 1581.46 130.314C1508.35 82.2028 1428.29 47.1256 1341.33 25.5861C1282.76 11.0922 1222.98 3.49301 1162.6 1.12769C1090.94 -1.69057 1019.39 0.473451 948.434 11.0419C856.197 24.7809 768.59 53.8693 685.813 96.8979C600.269 141.386 525.04 199.965 458.417 269.415C377.804 353.409 318.426 450.186 286.221 562.715C274.295 604.334 262.973 646.055 251.5 687.775C249.437 695.374 245.562 701.665 240.43 707.553C233.636 715.303 226.994 723.255 221.006 731.609C212.049 744.039 203.746 756.872 195.192 769.605C165.402 813.942 138.934 860.04 121.07 910.668C118.252 918.67 113.623 925.716 106.729 930.698C88.4124 943.783 76.0337 961.95 63.7556 980.168C56.2075 991.341 50.7226 1003.37 49.6156 1017.06C49.0117 1024.35 46.1435 1030.7 40.3064 1035.22C32.4061 1041.42 27.1225 1049.52 23.8013 1058.58C18.6687 1072.57 12.7309 1086.66 10.2652 1101.25C1.35856 1153.89 -2.11353 1206.94 1.2076 1260.38C4.02553 1305.98 7.6989 1351.37 17.3604 1396.11C18.4171 1400.94 19.2725 1406.33 21.9898 1410.2H22.7949C26.3174 1430.08 32.5067 1449.16 44.332 1466.07C59.4783 1487.71 75.4802 1517.45 99.4829 1530.03C100.338 1530.48 101.194 1530.83 101.999 1531.19C108.037 1537.73 114.529 1543.92 121.775 1549.35C126.857 1553.18 132.694 1554.39 138.783 1553.78C147.337 1552.98 155.892 1552.17 164.396 1551.12C179.894 1573.36 200.425 1592.43 222.113 1609.19C260.004 1638.43 307.305 1664.9 328.238 1709.79C334.83 1743.41 341.271 1777.08 347.108 1810.85C354.304 1852.47 371.413 1889.46 395.667 1923.53C399.139 1928.41 402.561 1933.29 406.084 1938.17C439.949 1984.83 476.985 2028.96 515.48 2071.79C601.376 2167.41 688.832 2261.57 779.61 2352.56C788.567 2361.51 798.782 2367.96 810.859 2371.38C823.64 2375.05 836.522 2378.47 849.404 2381.85C891.069 2392.82 933.238 2399.46 976.614 2399.11C1017.98 2398.76 1059.34 2398.76 1100.7 2398.76C1104.68 2400.11 1109.16 2400.87 1114.09 2400.87C1146.29 2401.07 1178.5 2400.22 1210.6 2398.5C1211.81 2398.5 1213.07 2398.5 1214.28 2398.5C1256.19 2398.2 1298.16 2398.96 1339.98 2394.43C1382.04 2389.85 1423.86 2384.56 1464.87 2373.44C1516.55 2359.45 1564.1 2337.36 1606.97 2305C1645.82 2275.71 1683.61 2245.26 1719.29 2212.15C1767.75 2167.26 1809.01 2116.63 1842.98 2060.01C1853.59 2042.3 1863.51 2024.08 1869.14 2004.1C1877.39 1974.96 1885.04 1945.67 1892.74 1916.38C1895.41 1906.17 1896.87 1904.56 1907.34 1903.7C1909 1903.55 1910.71 1903.45 1912.27 1903C1932.39 1897.26 1952.47 1891.12 1972.7 1885.73C1983.17 1882.97 1988.25 1876.52 1989.91 1866.31C1991.87 1854.18 1993.99 1842 1996.35 1829.92C2003.04 1795.6 2010.34 1761.43 2016.53 1727.01C2024.38 1683.42 2031.48 1639.74 2038.62 1596.06C2053.52 1505.07 2069.01 1414.18 2082.85 1322.99C2090.95 1269.69 2095.83 1215.9 2103.08 1162.5C2109.22 1117.26 2113.75 1071.91 2113.85 1026.22C2113.9 989.63 2113.85 952.992 2113.04 916.456L2113.14 916.506ZM408.449 1632.39C406.788 1631.79 405.077 1631.34 403.366 1630.98C403.366 1630.98 403.417 1630.98 403.467 1630.98C399.794 1629.88 396.07 1628.87 392.346 1627.96C360.896 1620.47 329.043 1615.38 300.462 1599.03C295.882 1597.87 291.404 1596.51 286.925 1594.9C252.758 1569.64 215.068 1544.57 196.852 1506.68C196.299 1500.89 195.796 1495.1 195.343 1489.32C194.84 1482.52 194.487 1479.6 191.317 1477.79C190.814 1463.95 188.499 1450.46 184.675 1437.28C183.165 1426.96 181.555 1416.7 180.096 1406.43C173.906 1362.6 167.365 1318.86 161.729 1274.93C156.647 1235.32 152.923 1195.56 147.991 1155.91C144.419 1127.22 139.588 1098.64 135.814 1069.95C134.707 1061.44 134.808 1052.69 135.26 1044.08C135.613 1037.79 138.531 1035.98 144.721 1037.19C150.256 1038.29 155.942 1039.4 161.075 1041.62C176.523 1048.31 191.921 1055.1 207.42 1061.95C209.432 1062.6 211.395 1063.46 213.257 1064.51C215.773 1065.62 218.289 1066.73 220.805 1067.84C226.541 1068.99 232.328 1069.7 237.863 1071.66C247.022 1074.93 252.808 1078.05 259.702 1083.44C268.408 1084.44 276.66 1087.21 284.46 1091.74C285.215 1092.14 286.02 1092.55 286.775 1092.95C300.713 1097.88 315.256 1100.9 329.849 1103.17C334.679 1103.72 339.51 1104.22 344.341 1104.67C344.391 1104.52 344.492 1104.37 344.542 1104.22C345.448 1102.16 346.505 1100.1 347.511 1098.03C348.266 1098.23 348.97 1098.54 349.725 1098.69C355.21 1100.04 360.695 1101 366.129 1101.76C374.885 1106.34 384.043 1110.46 393.453 1113.33C411.568 1118.87 430.589 1120.58 449.057 1116.95C452.026 1118.16 455.045 1119.62 458.165 1121.33C458.517 1121.53 458.92 1121.79 459.272 1121.99C461.889 1122.69 464.505 1123.35 467.122 1124C497.817 1131.5 528.814 1137.03 560.063 1141.01C560.365 1141.01 560.667 1140.96 560.969 1140.91C574.706 1140.05 588.092 1142.17 601.326 1145.39C604.848 1145.69 608.371 1145.99 611.893 1146.24C673.586 1150.97 735.278 1155.65 796.92 1160.64C819.766 1162.5 842.611 1165.02 865.456 1167.28C868.023 1167.53 870.589 1168.04 873.155 1168.84C880.603 1168.74 888.05 1168.64 895.548 1168.49C898.416 1166.88 901.234 1166.93 904.001 1166.93C924.935 1167.28 945.868 1167.18 966.751 1168.39C1005.3 1170.65 1043.84 1170.75 1082.44 1170.35C1082.44 1345.99 1082.44 1521.63 1082.69 1697.31C1082.49 1697.31 1082.29 1697.31 1082.03 1697.31C964.688 1705.26 847.341 1697.31 730.397 1686.64C621.856 1676.78 511.907 1669.38 408.449 1632.34V1632.39ZM923.626 2329.36C920.708 2329 917.789 2328.7 914.921 2328.3C919.601 2327.44 924.079 2327.19 927.954 2327.75C926.495 2328.3 925.086 2328.8 923.626 2329.36ZM1051.74 2318.08C996.389 2320.6 940.987 2323.02 885.584 2323.17C881.71 2322.46 878.036 2322.41 874.665 2322.96C868.526 2322.36 862.689 2320.65 857.204 2317.78C853.53 2318.23 849.857 2318.59 846.234 2318.34C842.309 2318.03 838.032 2315.92 834.912 2313.35C830.383 2309.63 828.521 2302.13 831.44 2300.17C831.641 2300.07 831.842 2299.92 831.993 2299.81C829.88 2297.3 828.018 2294.53 826.358 2291.46C826.257 2291.16 826.106 2290.86 826.005 2290.55C821.124 2284.67 817.35 2277.77 815.337 2270.58C812.268 2259.86 811.412 2248.43 810.356 2237.31C808.343 2229.56 806.431 2221.76 804.72 2213.91C787.51 2135.6 766.527 2058.25 744.587 1981.15C731.605 1935.4 719.83 1889.36 708.004 1843.31C705.639 1834.1 704.885 1824.29 704.633 1814.67C704.381 1804.86 709.262 1800.83 719.176 1801.44C729.692 1802.09 740.159 1802.75 750.676 1803.45C785.447 1815.93 824.143 1817.79 860.575 1822.02C905.763 1827.3 951.051 1831.33 996.49 1834.05C1019.18 1835.41 1041.93 1836.51 1064.62 1837.22C1070.21 1837.42 1076.4 1838.02 1082.74 1838.48C1082.99 1995.39 1083.34 2152.31 1083.8 2309.23C1074.08 2314.71 1063.01 2317.53 1051.69 2318.03L1051.74 2318.08ZM1910.35 1129.74C1907.99 1199.49 1903.16 1268.89 1894.4 1338.14C1883.94 1420.92 1871.16 1503.26 1854.95 1585.09C1848.76 1616.39 1842.12 1647.69 1832.76 1678.24C1828.68 1691.58 1823.85 1704.66 1818.62 1717.54C1805.54 1736.27 1798.24 1756.95 1788.93 1778.64C1785.36 1786.89 1781.38 1795.05 1777.06 1803.05C1774.14 1807.58 1771.12 1812.01 1768 1816.38C1756.17 1832.69 1743.95 1848.94 1730.66 1864.09C1721 1875.16 1710.43 1885.33 1699.51 1895.14C1685.17 1908.03 1670.38 1920.36 1656.14 1933.39C1642.3 1943.1 1628.06 1952.31 1613.47 1960.77C1589.87 1974.51 1565.51 1987.04 1540.6 1998.61L1525.81 2000.63C1524.8 2000.63 1523.79 2000.63 1522.79 2000.58C1496.72 2006.57 1471.11 2014.92 1445.45 2022.32C1410.57 2032.33 1375.5 2039.68 1339.22 2041.74C1327.5 2042.4 1315.77 2043.45 1304 2043.96C1285.13 2044.76 1267.41 2043.2 1248.64 2040.54C1243.46 2039.78 1238.38 2038.77 1233.45 2036.96C1225.9 2034.25 1217.55 2031.28 1210.6 2026.95C1209.65 2026.34 1208.69 2025.74 1207.73 2025.09C1172.06 2022.17 1143.02 1988.25 1143.02 1952.87V112.147C1143.02 110.083 1143.17 108.02 1143.32 106.007C1237.52 97.2502 1332.33 120.601 1422.2 148.784C1501.2 173.544 1580.35 203.891 1645.67 255.072C1649.44 256.934 1653.22 258.897 1656.89 261.061C1668.67 270.17 1680.39 279.229 1692.17 288.338C1696.14 292.364 1699.81 296.541 1703.39 300.819C1718.89 316.52 1736 330.561 1749.98 347.773C1770.36 372.885 1787.17 401.37 1805.08 428.194C1812.83 439.769 1819.88 451.645 1826.37 463.673C1836.48 485.615 1845.79 507.96 1854.4 530.506C1859.88 544.849 1864.81 559.393 1869.24 574.088C1878.15 603.781 1885.04 634.027 1890.28 664.574C1902.4 735.232 1909.55 806.645 1910.05 878.309C1910.2 881.731 1910.25 885.153 1910.05 888.626C1910.05 897.282 1910.05 905.887 1910.15 914.543C1910.66 986.308 1912.77 1058.07 1910.35 1129.79V1129.74Z" fill="black"/>
</svg>
