<svg width="2114" height="2401" viewBox="0 0 2114 2401" fill="none" xmlns="http://www.w3.org/2000/svg">
<path d="M2113.14 916.506C2112.54 889.682 2106.65 863.765 2095.88 839.004C2090.9 827.63 2084.06 818.27 2073.39 811.828C2050.04 797.737 2026.85 783.293 2003.14 769.806C1994.94 765.126 1991.37 759.489 1990.61 750.229C1989.46 736.339 1987.7 722.399 1984.78 708.761C1979.34 683.396 1972.55 658.284 1966.86 632.97C1958.41 595.326 1944.62 560.098 1921.63 528.795C1903.96 483.3 1884.69 438.863 1857.17 397.696C1837.84 368.809 1819.43 339.016 1797.89 311.689C1790.74 302.63 1782.79 294.377 1774.59 286.375C1774.59 285.52 1774.59 284.614 1774.54 283.758C1766.29 273.643 1759.14 262.571 1753.15 250.744C1703.09 198.305 1645.22 160.258 1581.46 130.314C1508.35 82.2028 1428.29 47.1256 1341.33 25.5861C1282.76 11.0922 1222.98 3.49301 1162.6 1.12769C1090.94 -1.69057 1019.39 0.473451 948.434 11.0419C856.197 24.7809 768.59 53.8693 685.813 96.8979C600.269 141.386 525.04 199.965 458.417 269.415C377.804 353.409 318.426 450.186 286.221 562.715C274.295 604.334 262.973 646.055 251.5 687.775C249.437 695.374 245.562 701.665 240.43 707.553C233.636 715.303 226.994 723.255 221.006 731.609C212.049 744.039 203.746 756.872 195.192 769.605C165.402 813.942 138.934 860.04 121.07 910.668C118.252 918.67 113.623 925.716 106.729 930.698C88.4124 943.783 76.0337 961.95 63.7555 980.168C56.2075 991.341 50.7226 1003.37 49.6156 1017.06C49.0117 1024.35 46.1435 1030.7 40.3064 1035.22C32.4061 1041.42 27.1225 1049.52 23.8013 1058.58C18.6687 1072.57 12.7309 1086.66 10.2652 1101.25C1.35856 1153.89 -2.11353 1206.94 1.2076 1260.38C4.02552 1305.98 7.6989 1351.37 17.3604 1396.11C18.4171 1400.94 19.2725 1406.33 21.9898 1410.2H22.7949C26.3174 1430.08 32.5067 1449.16 44.332 1466.07C59.4783 1487.71 75.4801 1517.45 99.4829 1530.03C100.338 1530.48 101.194 1530.83 101.999 1531.19C108.037 1537.73 114.529 1543.92 121.775 1549.35C126.857 1553.18 132.694 1554.39 138.783 1553.78C147.337 1552.98 155.892 1552.17 164.396 1551.12C179.894 1573.36 200.425 1592.43 222.113 1609.19C260.004 1638.43 307.305 1664.9 328.238 1709.79C334.83 1743.41 341.271 1777.08 347.108 1810.85C354.304 1852.47 371.413 1889.46 395.667 1923.53C399.139 1928.41 402.561 1933.29 406.084 1938.17C439.949 1984.83 476.985 2028.96 515.48 2071.79C601.376 2167.41 688.832 2261.57 779.61 2352.56C788.567 2361.51 798.782 2367.96 810.859 2371.38C823.64 2375.05 836.522 2378.47 849.404 2381.85C891.069 2392.82 933.237 2399.46 976.613 2399.11C1017.98 2398.76 1059.34 2398.76 1100.7 2398.76C1104.68 2400.11 1109.16 2400.87 1114.09 2400.87C1146.29 2401.07 1178.5 2400.22 1210.6 2398.5C1211.81 2398.5 1213.07 2398.5 1214.28 2398.5C1256.19 2398.2 1298.16 2398.96 1339.98 2394.43C1382.04 2389.85 1423.86 2384.56 1464.87 2373.44C1516.55 2359.45 1564.1 2337.36 1606.97 2305C1645.82 2275.71 1683.61 2245.26 1719.29 2212.15C1767.75 2167.26 1809.01 2116.63 1842.98 2060.01C1853.59 2042.3 1863.51 2024.08 1869.14 2004.1C1877.39 1974.96 1885.04 1945.67 1892.74 1916.38C1895.41 1906.17 1896.87 1904.56 1907.34 1903.7C1909 1903.55 1910.71 1903.45 1912.27 1903C1932.39 1897.26 1952.47 1891.12 1972.7 1885.73C1983.17 1882.97 1988.25 1876.52 1989.91 1866.31C1991.87 1854.18 1993.99 1842 1996.35 1829.92C2003.04 1795.6 2010.34 1761.43 2016.53 1727.01C2024.38 1683.42 2031.47 1639.74 2038.62 1596.06C2053.52 1505.07 2069.01 1414.18 2082.85 1322.99C2090.95 1269.69 2095.83 1215.9 2103.08 1162.5C2109.22 1117.26 2113.75 1071.91 2113.85 1026.22C2113.9 989.63 2113.85 952.992 2113.04 916.456L2113.14 916.506ZM923.626 2329.36C920.708 2329 917.789 2328.7 914.921 2328.3C919.601 2327.44 924.079 2327.19 927.954 2327.75C926.495 2328.3 925.086 2328.8 923.626 2329.36ZM1910.35 1129.74C1907.99 1199.49 1903.16 1268.89 1894.4 1338.14C1883.94 1420.92 1871.15 1503.26 1854.95 1585.09C1848.76 1616.39 1842.12 1647.69 1832.76 1678.24C1828.68 1691.58 1823.85 1704.66 1818.62 1717.54C1805.54 1736.27 1798.24 1756.95 1788.93 1778.64C1785.36 1786.89 1781.38 1795.05 1777.06 1803.05C1774.14 1807.58 1771.12 1812.01 1768 1816.38C1756.17 1832.69 1743.95 1848.94 1730.66 1864.09C1721 1875.16 1710.43 1885.33 1699.51 1895.14C1685.17 1908.03 1670.38 1920.36 1656.14 1933.39C1642.3 1943.1 1628.06 1952.31 1613.47 1960.77C1589.87 1974.51 1565.51 1987.04 1540.6 1998.61L1525.81 2000.63C1524.8 2000.63 1523.79 2000.63 1522.79 2000.58C1496.72 2006.57 1471.11 2014.92 1445.45 2022.32C1423.46 2028.61 1401.42 2033.89 1379.02 2037.42C1361.06 2046.78 1341.64 2053.97 1320.6 2058.4C1287.44 2065.35 1257.65 2066.6 1226.25 2063.74C1223.33 2064.79 1220.36 2065.75 1217.35 2066.35C1188.66 2071.99 1164.51 2072.04 1136.23 2067.36C1121.89 2069.93 1107.35 2071.59 1092.85 2072.14C1089.63 2072.24 1086.51 2072.14 1083.44 2071.89C1083.39 2071.89 1083.34 2071.89 1083.24 2071.89C1083.39 2151 1083.54 2230.11 1083.74 2309.23C1074.03 2314.71 1062.96 2317.53 1051.64 2318.03C996.289 2320.55 940.886 2322.96 885.484 2323.12C881.609 2322.41 877.936 2322.36 874.564 2322.91C868.425 2322.31 862.588 2320.6 857.103 2317.73C853.43 2318.18 849.756 2318.54 846.133 2318.28C842.208 2317.98 837.931 2315.87 834.811 2313.3C830.282 2309.58 828.421 2302.08 831.339 2300.12C831.54 2300.02 831.742 2299.87 831.893 2299.76C829.779 2297.25 827.917 2294.48 826.257 2291.41C826.156 2291.11 826.005 2290.81 825.905 2290.5C821.024 2284.62 817.249 2277.72 815.237 2270.53C812.167 2259.81 811.312 2248.38 810.255 2237.26C808.242 2229.51 806.33 2221.71 804.619 2213.86C787.41 2135.55 766.426 2058.2 744.487 1981.1C731.504 1935.35 719.729 1889.31 707.904 1843.26C705.539 1834.05 704.784 1824.23 704.532 1814.62C704.281 1804.81 709.162 1800.78 719.075 1801.39C729.592 1802.04 740.058 1802.7 750.575 1803.4C785.347 1815.88 824.043 1817.74 860.474 1821.97C905.662 1827.25 950.95 1831.28 996.389 1834C1019.08 1835.36 1041.83 1836.46 1064.52 1837.17C1069.61 1837.32 1075.19 1837.82 1080.93 1838.28C1080.93 1791.32 1080.47 1744.32 1079.67 1697.36C963.027 1705.06 846.435 1697.11 730.296 1686.59C621.756 1676.73 511.806 1669.33 408.348 1632.29C406.687 1631.69 404.977 1631.24 403.266 1630.88C403.266 1630.88 403.316 1630.88 403.366 1630.88C399.693 1629.78 395.969 1628.77 392.245 1627.86C360.795 1620.36 328.943 1615.28 300.361 1598.93C295.782 1597.77 291.303 1596.41 286.825 1594.8C252.657 1569.54 214.968 1544.47 196.752 1506.58C196.198 1500.79 195.695 1495 195.242 1489.22C194.739 1482.42 194.387 1479.5 191.216 1477.69C190.713 1463.85 188.399 1450.36 184.574 1437.18C183.065 1426.86 181.454 1416.59 179.995 1406.33C173.806 1362.49 167.264 1318.76 161.628 1274.83C156.546 1235.22 152.822 1195.46 147.891 1155.81C144.318 1127.12 139.487 1098.53 135.713 1069.85C134.606 1061.34 134.707 1052.59 135.16 1043.98C135.512 1037.69 138.431 1035.88 144.62 1037.09C150.155 1038.19 155.841 1039.3 160.974 1041.52C176.422 1048.21 191.82 1055 207.319 1061.85C209.332 1062.5 211.294 1063.36 213.156 1064.41C215.672 1065.52 218.188 1066.63 220.704 1067.74C226.441 1068.89 232.227 1069.6 237.763 1071.56C246.921 1074.83 252.708 1077.95 259.602 1083.34C268.307 1084.34 276.559 1087.11 284.359 1091.64C285.114 1092.04 285.919 1092.45 286.674 1092.85C300.613 1097.78 315.155 1100.8 329.748 1103.06C334.579 1103.62 339.409 1104.12 344.24 1104.57C344.29 1104.42 344.391 1104.27 344.441 1104.12C345.347 1102.06 346.404 1099.99 347.41 1097.93C348.165 1098.13 348.87 1098.43 349.624 1098.59C355.109 1099.94 360.594 1100.9 366.029 1101.66C374.784 1106.23 383.943 1110.36 393.353 1113.23C411.468 1118.77 430.489 1120.48 448.956 1116.85C451.925 1118.06 454.944 1119.52 458.064 1121.23C458.417 1121.43 458.819 1121.68 459.171 1121.89C461.788 1122.59 464.405 1123.25 467.021 1123.9C497.717 1131.4 528.714 1136.93 559.963 1140.91C560.264 1140.91 560.566 1140.86 560.868 1140.81C574.606 1139.95 587.991 1142.07 601.225 1145.29C604.748 1145.59 608.27 1145.89 611.792 1146.14C673.485 1150.87 735.177 1155.55 796.82 1160.54C819.665 1162.4 842.51 1164.91 865.356 1167.18C867.922 1167.43 870.488 1167.93 873.055 1168.74C880.502 1168.64 887.949 1168.54 895.447 1168.39C898.315 1166.78 901.133 1166.83 903.901 1166.83C924.834 1167.18 945.767 1167.08 966.65 1168.29C999.861 1170.25 1033.12 1170.55 1066.33 1170.35C1066.59 1119.42 1069.3 1068.69 1073.28 1018.01C1074.74 988.019 1076.65 958.025 1079.12 928.081C1080.17 915.399 1081.33 902.717 1082.59 890.085C1084.4 656.673 1080.52 423.06 1080.52 189.699C1080.52 150.394 1107.55 119.746 1143.02 109.781C1143.07 108.473 1143.12 107.164 1143.22 105.856C1237.42 97.0992 1332.23 120.45 1422.1 148.633C1501.1 173.393 1580.25 203.74 1645.57 254.921C1649.34 256.783 1653.12 258.746 1656.79 260.91C1668.57 270.019 1680.29 279.078 1692.07 288.187C1696.04 292.213 1699.71 296.39 1703.29 300.668C1718.79 316.369 1735.89 330.41 1749.88 347.622C1770.26 372.734 1787.07 401.219 1804.98 428.043C1812.73 439.618 1819.78 451.494 1826.27 463.522C1836.38 485.464 1845.69 507.809 1854.3 530.355C1859.78 544.698 1864.71 559.242 1869.14 573.937C1878.05 603.63 1884.94 633.876 1890.18 664.423C1902.3 735.081 1909.45 806.494 1909.95 878.158C1910.1 881.58 1910.15 885.002 1909.95 888.475C1909.95 897.131 1909.95 905.736 1910.05 914.392C1910.56 986.157 1912.67 1057.92 1910.25 1129.64L1910.35 1129.74Z" fill="black"/>
</svg>
