<svg width="236" height="209" viewBox="0 0 236 209" fill="none" xmlns="http://www.w3.org/2000/svg">
<g clip-path="url(#clip0_2120_2754)">
<path d="M147.93 129.745C148.756 129.37 149.66 129.098 150.405 128.6C159.185 122.695 167.005 115.742 173.423 107.291C174.548 105.807 175.323 104.051 176.52 102.633C177.372 101.622 177.562 101.786 178.917 102.731C178.096 103.676 177.167 104.544 176.478 105.576C175.41 107.173 175.672 108.656 177.428 109.375C181.228 110.926 184.047 113.55 186.578 116.651C186.897 117.042 188.057 117.016 188.714 116.821C199.739 113.529 210.742 110.171 221.756 106.844C223.204 106.407 224.683 106.079 226.151 105.427C224.719 105.283 223.286 105.139 221.848 105.001C226.275 104.456 230.675 103.547 235.132 105.047C232.626 105.637 230.126 106.243 227.62 106.823C214.455 109.853 201.695 114.176 189.048 118.875C188.088 119.234 187.672 119.655 187.667 120.769C187.662 124.282 186.46 127.501 184.052 129.981C176.828 137.416 168.314 142.654 157.876 144.158C156.376 144.374 154.666 144.081 153.234 143.547C150.862 142.664 150.235 140.584 151.858 138.669C153.521 136.703 155.38 134.695 157.573 133.411C165.085 129.011 172.766 124.903 180.401 120.723C181.788 119.963 183.261 119.362 184.853 118.618C184.145 116.153 182.938 114.187 180.761 112.852C178.876 111.691 177.012 110.49 174.953 109.185C172.869 111.157 170.676 113.36 168.345 115.404C162.702 120.359 157.013 125.262 151.293 130.125C150.189 131.065 148.91 131.845 147.611 132.497C145.747 133.427 144.798 132.723 144.952 130.669C144.998 130.048 145.147 129.432 145.332 128.333C144.407 129.154 143.842 129.791 143.154 130.248C140.52 131.999 137.948 133.878 135.165 135.347C133.322 136.323 132.377 135.373 132.798 133.303C133.019 132.204 133.404 131.142 133.368 129.688C132.782 130.13 132.089 130.479 131.632 131.023C130.076 132.877 128.793 134.998 127.052 136.641C124.865 138.71 122.364 140.466 119.905 142.217C119.417 142.561 118.493 142.289 117.769 142.299C117.805 141.581 117.579 140.697 117.917 140.174C119.047 138.412 120.439 136.826 121.609 135.09C122.888 133.201 124.089 131.255 125.188 129.257C125.435 128.805 125.116 128.045 125.06 127.424C124.433 127.547 123.643 127.47 123.201 127.825C121.522 129.17 120.161 131.085 118.297 131.979C115.792 133.175 114.488 134.916 113.497 137.38C111.35 142.71 107.761 146.962 102.97 150.156C102.472 150.489 101.908 150.726 101.163 151.121C100.295 147.896 102.241 145.524 102.57 142.72C97.6098 146.587 93.995 151.799 89.6254 156.251C89.4252 156.184 89.2249 156.122 89.0247 156.055C89.2044 155.018 89.1787 153.894 89.5946 152.964C91.135 149.545 92.8243 146.192 94.452 142.818C94.719 142.263 94.9911 141.714 94.9911 140.98C89.99 146.623 86.2519 153.18 81.5178 159.26C81.5486 158.654 81.4099 157.966 81.6461 157.457C82.3342 155.963 83.1557 154.525 83.9516 153.082C85.4869 150.299 87.0529 147.537 88.5677 144.744C88.8655 144.194 88.9733 143.537 89.1736 142.931L88.6652 142.638C88.1466 143.208 87.5613 143.727 87.1248 144.348C82.1647 151.444 77.2252 158.551 72.2959 165.668C71.5924 166.684 70.889 167.614 69.1329 167.234C69.5437 166.335 69.8158 165.514 70.2574 164.8C71.7927 162.31 73.5025 159.917 74.9197 157.36C75.8337 155.717 76.419 153.873 77.0198 152.076C77.2149 151.496 76.9941 150.777 76.9633 150.125C76.8041 150.058 76.6449 149.991 76.4909 149.925C75.3202 151.229 74.0776 152.471 72.9942 153.842C69.1175 158.731 65.3333 163.691 61.436 168.559C60.2499 170.037 58.879 171.398 57.4515 172.656C56.3065 173.663 55.0485 174.479 53.3078 173.555C52.7995 173.288 51.8393 173.868 51.0845 174.058C51.0845 173.95 51.0383 173.781 51.0897 173.745C53.5492 172.03 53.8727 169.206 54.7866 166.679C56.4092 162.181 58.6684 158.089 62.5759 155.136C64.1471 153.95 65.8211 152.933 68.2754 153.267C65.78 160.22 60.2859 164.815 56.5067 170.725C57.2513 170.15 58.1139 169.678 58.7198 168.985C63.0997 163.942 67.4128 158.849 71.7721 153.791C73.3896 151.912 75.0019 150.022 76.7733 148.292C77.3535 147.727 78.4164 147.66 79.2585 147.362C79.3817 148.317 79.7771 149.329 79.5717 150.207C79.2893 151.414 78.5551 152.518 78.0262 153.668C77.7232 154.325 77.4511 154.998 77.333 155.752C81.605 150.258 85.2096 144.276 90.5805 138.864C90.8372 140.477 91.0118 141.534 91.2274 142.9C93.2864 140.862 95.2273 138.941 97.1683 137.021C97.3736 137.139 97.579 137.262 97.7844 137.38C97.2555 141.724 94.8628 145.478 93.3635 149.514C93.5021 149.616 93.6459 149.724 93.7845 149.827C94.6625 148.892 95.6535 148.04 96.3981 147.008C99.9358 142.104 104.259 138.002 109.065 134.382C109.522 134.038 109.948 133.596 110.467 133.406C110.857 133.262 111.371 133.437 111.828 133.473C111.73 133.863 111.74 134.325 111.525 134.628C109.779 137.057 107.946 139.424 106.246 141.884C105.599 142.818 105.24 143.953 104.747 145C104.932 145.129 105.117 145.252 105.302 145.38C106.036 144.646 106.914 144.009 107.468 143.162C109.353 140.297 111.165 137.38 112.896 134.418C113.168 133.95 112.998 133.124 112.834 132.518C112.547 131.46 112.731 130.454 113.882 130.638C117.707 131.249 119.756 128.805 121.815 126.341C122.744 125.231 123.473 123.896 125.07 125.493C125.204 125.627 125.553 125.57 125.804 125.57C128.177 125.555 128.875 126.438 127.704 128.518C125.928 131.67 123.848 134.649 121.902 137.704C121.707 138.007 121.532 138.325 121.353 138.638L121.738 139.075C122.38 138.536 123.088 138.048 123.658 137.442C128.135 132.651 132.587 127.83 137.044 123.024C137.388 122.649 137.676 122.161 138.102 121.935C138.646 121.642 139.303 121.56 139.909 121.391C140.012 122.033 140.407 122.844 140.156 123.291C139.134 125.119 137.897 126.818 136.772 128.59C135.899 129.966 134.908 131.337 135.668 133.375C136.49 133.052 137.321 132.893 137.953 132.446C140.921 130.361 143.853 128.225 146.744 126.038C147.267 125.642 147.565 124.934 147.935 124.348C149.521 121.817 150.944 119.162 152.741 116.795C153.639 115.609 155.118 114.695 156.525 114.094C158.184 113.386 158.974 114.115 158.394 115.773C157.799 117.473 156.987 119.214 155.832 120.564C154.358 122.284 152.376 123.558 150.738 125.149C149.501 126.351 148.459 127.753 147.329 129.062C147.534 129.298 147.735 129.529 147.94 129.765L147.93 129.745ZM185.356 120.549C175.056 124.364 165.521 129.062 157.003 135.629C155.637 136.687 154.543 138.197 153.593 139.67C152.623 141.18 153.239 142.459 155.016 142.72C156.304 142.91 157.711 142.905 158.974 142.602C165.362 141.057 171.138 138.089 176.324 134.145C178.969 132.138 181.254 129.586 183.405 127.034C184.822 125.355 185.644 123.214 185.356 120.549ZM57.9136 165.637C60.2859 163.121 62.6786 160.651 64.0701 157.457C61.0869 159.511 58.8738 162.125 57.9136 165.637ZM152.022 121.062C154.913 119.547 155.698 118.438 155.072 116.451C153.901 118.217 152.962 119.64 152.022 121.062Z" fill="white"/>
<path d="M130.287 25.3604C132.398 22.3361 134.482 19.3528 136.567 16.3695C136.418 16.2206 136.264 16.0717 136.115 15.9227C135.407 16.4619 134.575 16.8984 134.01 17.5607C131.284 20.7494 128.639 24.01 125.933 27.2141C124.994 28.3283 124.003 29.4169 122.935 30.3976C121.743 31.4913 120.434 31.3938 118.899 30.3155C122.154 26.752 125.261 23.1422 125.856 18.2437C125.687 18.0537 125.517 17.8637 125.343 17.6686C123.469 18.5055 121.589 19.3425 119.715 20.1846C117.245 21.2937 115.397 22.7571 114.206 25.4991C112.234 30.0331 108.737 33.6017 105.02 36.8417C103.726 37.9714 102.35 39.2551 100.27 38.6132C99.9826 38.5259 99.4794 39.1216 99.0738 39.404C97.8825 40.241 96.7734 41.2525 95.4846 41.8841C92.8762 43.1626 91.649 42.5208 90.8839 39.6094C90.047 40.775 89.3744 41.9406 88.4861 42.9008C87.5515 43.9072 86.4938 44.8674 85.318 45.5503C84.6042 45.9662 83.5619 45.8122 82.6685 45.9149C82.6325 45.0625 82.2885 44.0664 82.6171 43.3886C83.6286 41.2833 84.8815 39.2962 86.0728 37.2833C86.386 36.7545 86.8173 36.2975 86.8892 35.4759C85.7647 36.4977 84.5221 37.422 83.5362 38.5619C79.9933 42.6492 76.5736 46.8443 73.0101 50.9161C72.317 51.7069 71.2438 52.4411 70.2425 52.626C68.5173 52.9495 67.8446 51.7377 68.6816 50.1613C69.7856 48.0869 70.9203 46.0227 71.9935 43.9277C72.3272 43.2807 72.5069 42.5567 72.7585 41.8687C72.6199 41.7506 72.4761 41.6325 72.3375 41.5092C71.7932 41.9098 71.1873 42.2538 70.7201 42.7262C66.9923 46.5105 64.6406 51.1677 62.4327 55.9122C62.0733 56.6824 61.9295 57.8326 60.6458 57.2935C59.2543 56.7081 60.004 55.7839 60.3891 54.9366C61.4982 52.5079 62.6124 50.0791 63.6856 47.635C63.9782 46.9726 64.1323 46.2435 64.3479 45.5452C64.199 45.4271 64.045 45.3141 63.8961 45.196C63.4032 45.6427 62.8178 46.0176 62.4276 46.5413C58.1709 52.2563 53.9451 57.9969 49.709 63.7325C49.406 64.1433 49.175 64.8364 48.8053 64.9186C47.84 65.1343 46.7719 65.2575 45.8426 65.0264C45.5704 64.9597 45.3753 63.4911 45.591 62.8031C46.0634 61.3243 46.8233 59.9379 47.4651 58.5156C47.3111 58.418 47.1519 58.3204 46.9979 58.2177C46.5049 58.8801 46.0017 59.5425 45.5191 60.21C43.3574 63.2036 41.2162 66.2074 39.0237 69.1804C38.6232 69.7247 38.0892 70.2793 37.4885 70.5155C37.0828 70.6747 36.3896 70.3922 35.9635 70.1047C35.7683 69.9712 35.7478 69.2729 35.907 68.9648C38.957 63.029 41.9762 57.0727 45.1699 51.2139C46.0017 49.694 47.2854 48.359 48.5845 47.1831C49.0774 46.7364 50.1968 46.9367 51.0286 46.9572C51.1261 46.9572 51.4137 47.8815 51.2545 48.0663C50.7102 48.6979 50.0222 49.2114 49.3547 49.7249C49.0928 49.9302 48.6153 49.9456 48.4664 50.187C45.5088 54.9264 42.5872 59.6863 39.6707 64.4462C39.5166 64.6978 39.5012 65.0316 39.5577 65.4115C43.5936 60.1946 47.0235 54.5002 51.9734 50.0689C52.1993 50.1254 52.4304 50.1818 52.6563 50.2332C52.5228 51.0958 52.5793 52.0458 52.225 52.8057C50.9362 55.5733 49.4933 58.264 48.1378 61.0059C47.8143 61.658 47.6192 62.3769 47.3624 63.0649L47.7989 63.3525C48.2405 62.8287 48.7026 62.3204 49.1185 61.7761C53.6421 55.789 58.1504 49.7916 62.6792 43.8147C63.0591 43.3115 63.4853 42.7364 64.0296 42.49C64.579 42.2384 65.4468 42.0997 65.8935 42.3719C66.2375 42.5773 66.2478 43.5118 66.2118 44.1074C66.1759 44.6825 65.8935 45.2422 65.724 45.8122C65.8729 45.8995 66.0218 45.9816 66.1707 46.0689C67.0334 45.0317 67.8806 43.9791 68.7689 42.9624C69.7291 41.8635 70.6225 40.6517 71.7624 39.7737C72.3991 39.2808 73.4774 39.368 74.3606 39.1935C74.4992 40.0612 74.9921 41.0728 74.7148 41.7711C74.0371 43.4656 72.9845 45.0111 72.1116 46.6286C71.5622 47.6453 71.059 48.6876 70.8433 49.9456C77.7238 43.1883 83.5362 35.3629 92.1984 30.5568C89.0303 34.5773 86.3346 38.8135 84.5991 43.5786C84.7377 43.6864 84.8764 43.7993 85.015 43.9072C85.626 43.2448 86.3706 42.6697 86.8224 41.9149C90.0521 36.5131 93.174 31.0549 96.4191 25.6634C98.7451 21.7969 101.2 18.0075 103.608 14.1923C103.808 13.8688 104.013 13.4324 104.316 13.3143C104.902 13.0884 105.564 13.0524 106.19 12.9395C106.088 13.53 106.165 14.2437 105.862 14.6955C103.51 18.1666 100.886 21.4683 98.74 25.0575C96.7888 28.3181 95.2536 31.8405 93.7131 35.3321C93.1689 36.5645 93.0302 38.0279 92.9481 39.404C92.8608 40.8777 93.8364 41.3295 94.8839 40.4155C97.025 38.5465 99.1456 36.6158 100.984 34.4541C102.873 32.2359 104.388 29.6942 106.124 27.3373C106.724 26.526 107.423 25.7301 108.239 25.1653C108.655 24.8829 109.436 25.1345 110.052 25.1448C109.99 25.7404 110.149 26.5209 109.831 26.8957C107.638 29.458 105.312 31.9072 103.094 34.4438C102.514 35.1062 102.155 35.9586 102.021 36.9547C106.16 33.1191 110.293 29.3347 113.43 24.6672C113.322 24.5183 113.22 24.3643 113.112 24.2154C112.65 24.2616 112.131 24.4619 111.731 24.3181C111.063 24.0819 110.478 23.63 109.857 23.2706C110.247 22.6596 110.632 22.0485 111.043 21.4477C111.099 21.3605 111.274 21.3194 111.392 21.3142C115.438 21.2372 118.539 18.4645 122.262 17.5197C123.772 17.1397 125.415 17.2835 127.001 17.191C126.842 18.829 126.76 20.4824 126.483 22.105C126.339 22.9317 125.836 23.6968 125.358 24.811C128.172 21.7712 130.688 18.9882 133.286 16.2822C134.159 15.3733 135.212 14.6185 136.254 13.8945C136.619 13.6429 137.45 13.4837 137.625 13.684C137.938 14.028 138.051 14.6955 137.989 15.1987C137.897 15.9279 137.579 16.6313 137.286 17.5864C139.232 15.9741 140.927 14.4491 142.749 13.1038C143.858 12.2873 145.116 11.5736 146.41 11.1115C148.916 10.218 149.789 10.6237 151.376 12.7443C155.263 17.9561 160.597 19.209 166.672 18.0896C174.107 16.7135 181.003 13.7045 187.929 10.8239C190.748 9.65321 193.454 8.11792 196.366 7.28095C203.683 5.18084 211.046 3.20396 218.476 1.55057C222.609 0.631444 226.902 0.390111 231.138 0.00500395C232.293 -0.0976912 233.561 0.215529 234.665 0.631444C236.241 1.23221 236.334 2.52617 235.343 3.55312C234.583 3.12694 233.977 2.5313 233.325 2.46455C222.722 1.38112 212.56 3.21936 202.666 7.02422C193.172 10.675 183.652 14.2694 174.061 17.6532C170.667 18.8496 167.062 19.5428 163.493 20.1281C157.722 21.078 153.429 18.5826 150.6 13.6481C149.666 12.0152 148.618 11.8458 147.191 12.4927C146.102 12.9857 144.947 13.5094 144.095 14.3156C140.387 17.8021 136.752 21.3656 133.168 24.9753C132.249 25.8996 131.463 26.182 130.277 25.3502L130.287 25.3604Z" fill="white"/>
<path d="M26.5821 166.387C26.0532 167.619 25.3601 168.805 25.0263 170.089C22.7979 178.705 20.6208 187.337 18.4847 195.973C17.5399 199.799 16.703 203.655 15.8609 207.506C15.6709 208.369 15.5066 209.37 14.4027 208.862C13.7814 208.574 13.1755 207.645 13.0933 206.941C12.9855 205.971 13.3603 204.944 13.5657 203.948C16.7338 188.456 21.2831 173.38 27.1777 158.71C27.3215 158.356 27.3677 157.884 27.6296 157.673C28.179 157.232 28.8824 156.595 29.4421 156.672C29.9453 156.739 30.7309 157.658 30.7155 158.176C30.6385 160.898 30.3407 163.619 30.125 166.335C29.6937 171.789 29.2521 177.242 28.8516 182.695C28.8003 183.357 28.9646 184.04 29.0314 184.713C29.2059 184.759 29.3805 184.81 29.5551 184.857C30.084 183.763 30.7053 182.71 31.1212 181.575C34.8079 171.522 39.0799 161.719 44.5894 152.538C48.3172 146.33 52.5482 140.42 56.5994 134.408C57.5802 132.954 58.9306 133.129 59.4389 134.813C59.7316 135.789 59.7367 136.995 59.4492 137.971C57.4569 144.672 55.3106 151.327 53.2824 158.017C49.416 170.777 47.2132 183.881 45.2056 197.026C44.7486 200.03 44.3481 203.049 43.9014 206.186C42.8847 202.915 44.4662 184.477 46.8641 174.094C49.2876 163.599 51.9988 153.17 54.3196 142.505C53.5443 143.686 52.6509 144.805 52.0193 146.058C47.8448 154.351 43.6806 162.654 39.6088 170.993C36.7642 176.821 34.089 182.736 31.2598 188.569C30.9312 189.242 29.9915 190.166 29.4832 190.079C28.636 189.935 27.5577 189.231 27.2188 188.471C26.6951 187.301 26.4794 185.878 26.5256 184.579C26.7362 179.177 27.1007 173.786 27.3934 168.389C27.4242 167.773 27.3215 167.147 27.2804 166.525C27.0494 166.474 26.8183 166.423 26.5872 166.371L26.5821 166.387Z" fill="white"/>
<path d="M167.097 69.0166C166.892 68.2001 166.764 67.6918 166.615 67.1013C162.343 66.5262 158.112 66.557 153.896 67.471C147.781 68.7958 132.654 74.8907 127.632 78.0794C128.433 81.53 125.737 85.1859 121.542 85.874C119.607 86.1923 117.563 85.8431 115.571 85.7969C115.484 85.5761 115.401 85.3553 115.314 85.1294C115.781 84.5286 116.146 83.779 116.742 83.3477C119.057 81.6686 121.424 80.0614 123.807 78.4799C125.948 77.0627 125.999 76.7238 124.146 74.8702C120.249 77.34 116.315 79.7277 112.511 82.3104C111.53 82.978 110.883 84.2 110.2 85.2424C107.586 89.2424 104.403 92.3951 99.2323 92.354C98.2875 92.3489 97.3478 91.6762 96.4031 91.3117C97.0757 90.5209 97.62 89.5453 98.4415 88.9805C101.522 86.8701 104.747 84.9754 107.807 82.8342C109.461 81.6789 109.44 79.9074 107.859 78.0075C106.688 78.9164 105.435 79.7585 104.341 80.77C99.3966 85.3553 94.5084 90.0023 89.5637 94.5928C88.5881 95.4965 87.4893 96.2821 86.3904 97.0369C84.0747 98.6236 82.904 98.603 80.6499 97.001C78.3341 98.8392 76.0287 100.729 73.6513 102.526C72.2855 103.558 70.8427 104.508 69.3536 105.36C66.3498 107.081 65.4769 106.695 64.5219 102.942C62.7555 104.837 61.1689 106.536 59.5823 108.236C57.6311 110.331 55.6954 112.446 53.7134 114.516C52.8353 115.435 51.9162 116.323 50.9252 117.119C49.847 117.982 48.6146 118.587 47.2539 117.72C45.8778 116.842 46.1089 115.44 46.607 114.295C47.7879 111.573 48.9176 108.77 50.535 106.305C52.7275 102.962 55.3359 99.897 57.8211 96.7494C58.2781 96.1691 58.9097 95.6608 59.5669 95.3168C60.7068 94.716 61.9134 94.5825 62.8634 95.7019C63.8338 96.8418 62.6939 97.5196 62.2061 98.336C61.1638 100.077 60.1471 101.828 59.115 103.573C58.273 103.012 58.7145 101.039 60.4398 97.6531C56.7069 99.5838 49.5286 110.788 48.63 116.498C49.7494 115.748 50.7044 115.317 51.3874 114.618C55.6081 110.295 59.8185 105.956 63.9365 101.535C68.1007 97.0677 72.1263 92.467 76.2751 87.9843C77.0813 87.1114 78.0774 85.5761 79.4022 86.5158C80.7885 87.4914 79.5973 88.9599 79.1557 90.1409C78.7809 91.1474 78.2468 92.1076 77.682 93.0215C77.4099 93.458 76.9016 93.7507 76.5011 94.1101C76.3008 93.9817 76.1006 93.8534 75.9003 93.7301C76.5319 92.0921 77.1686 90.4542 77.8566 88.6621C74.7039 90.3361 66.9403 100.991 66.9762 103.758C67.7978 103.502 68.6347 103.419 69.256 103.014C74.4112 99.6454 79.6383 96.3951 83.2788 91.173C85.0144 88.6878 87.1504 86.4593 89.2505 84.2565C90.339 83.1166 91.7716 82.5415 93.4455 83.9125C90.7087 88.544 85.4611 90.9163 82.8475 95.5324C82.9964 95.743 83.1402 95.9535 83.2891 96.164C84.8603 95.4503 86.642 95.0087 87.9668 93.9715C91.9154 90.8803 95.7356 87.6198 99.4993 84.3027C101.502 82.5415 103.294 80.5389 105.142 78.6083C106.298 77.4016 107.52 76.349 107.715 74.367C107.812 73.3914 109.173 72.3644 110.19 71.7072C111.247 71.0242 111.817 71.8407 111.848 72.9138C111.858 73.263 111.71 73.7457 111.453 73.9613C108.993 76.0306 110.169 78.3464 111.021 80.8008C114.631 78.7418 118.277 76.7546 121.799 74.5826C122.497 74.1513 122.954 73.0525 123.17 72.1744C123.576 70.5364 124.428 69.3709 126.01 68.8882C126.605 68.7085 127.324 68.9395 127.986 68.9806C127.822 69.6173 127.827 70.3824 127.458 70.8599C126.728 71.8099 125.794 72.6006 124.859 73.5351C125.553 74.4851 126.246 75.435 127.067 76.5595C128.392 75.8869 129.717 75.1937 131.067 74.5364C138.497 70.8907 145.953 67.1629 154.22 65.9665C158.184 65.3914 162.317 65.8176 166.363 66.0281C168.407 66.136 168.638 67.0807 167.092 69.0063L167.097 69.0166ZM99.1912 90.5055C102.719 91.2038 108.167 87.0601 107.961 84.1641C105.091 86.2385 102.359 88.2154 99.1912 90.5055ZM125.655 79.4452C122.831 81.1705 120.284 82.7212 117.738 84.2719C121.311 85.2578 125.363 82.752 125.655 79.4452Z" fill="white"/>
<path d="M7.04503 47.3627C6.33644 46.1663 6.35185 45.0264 7.30176 44.0354C8.52895 42.7517 9.70993 41.3602 11.1425 40.3538C17.4017 35.9584 23.7995 31.7685 31.3834 29.9713C36.8929 28.6671 41.8017 29.7197 46.0224 33.7453C47.9581 35.5887 48.5589 37.7607 47.573 39.9481C46.2637 42.8595 44.7798 45.8788 42.6643 48.2151C37.3704 54.0584 31.6812 59.5064 24.6621 63.4242C22.2796 64.7541 20.3644 66.9261 18.2797 68.7695C17.3092 69.627 17.4222 70.6591 18.444 71.3318C21.0781 73.0622 23.6198 75.1007 26.5055 76.2508C30.9726 78.0377 35.6965 79.1828 40.3075 80.6205C40.9698 80.8259 41.5963 81.1443 42.1559 81.6988C37.1086 81.8477 32.282 80.8259 27.5324 79.3728C22.5723 77.858 18.6083 74.8696 15.127 70.695C14.6598 72.0866 14.249 73.247 13.8741 74.4177C9.83316 87.0749 5.80244 99.7321 1.74604 112.379C1.48417 113.195 1.02719 113.945 0.65749 114.726C0.436699 114.633 0.215908 114.541 -0.00488281 114.453C0.713972 111.917 1.45337 109.385 2.15168 106.844C7.82036 86.2585 13.489 65.6733 19.1064 45.0726C19.4247 43.907 19.8971 43.2652 21.0832 43.1625C22.8239 43.0136 23.5633 43.8454 23.1012 45.5245C21.3964 51.7119 19.6661 57.8941 17.9459 64.0815C17.833 64.4923 17.7611 64.9133 17.5454 65.8735C21.4735 63.1367 25.114 60.826 28.4977 58.1919C32.6054 54.9878 36.59 51.6092 40.4512 48.1124C43.1418 45.6734 44.8465 42.5463 45.4781 38.8904C45.7143 37.5194 45.4011 36.4205 44.4152 35.4244C41.7298 32.7184 38.3768 31.979 34.7671 32.246C28.3745 32.7132 22.6544 35.2447 17.4941 38.8287C13.9717 41.2729 10.8909 44.3486 7.60471 47.1316C7.47121 47.2446 7.26582 47.2754 7.03989 47.3627H7.04503Z" fill="white"/>
<path d="M12.4877 157.925C11.0757 156.585 10.9216 155.075 11.3889 153.571C12.4466 150.192 13.6481 146.854 14.8753 143.25C13.6584 144.595 12.5699 145.812 11.471 147.019C11.1732 147.347 10.9062 147.779 10.5263 147.948C9.6277 148.359 8.67265 148.641 7.73814 148.975C7.79975 147.851 7.40952 146.248 8.00514 145.684C10.7008 143.116 13.7098 140.878 16.5287 138.433C17.4375 137.648 18.4183 136.723 18.8496 135.65C25.4322 119.317 31.9687 102.962 40.6309 87.5685C41.473 86.0743 42.2226 84.503 43.2444 83.1423C43.722 82.5056 44.7438 82.2848 45.5191 81.874C45.8785 82.6699 46.6384 83.5274 46.5306 84.2566C45.8631 88.847 44.79 93.3862 44.2611 97.9869C43.3728 105.751 42.7926 113.55 42.0891 121.34C42.0634 121.638 42.1405 121.941 42.1867 122.392C47.5781 120.318 52.5125 117.237 58.4277 117.14C56.0657 118.192 53.6524 119.142 51.3623 120.328C48.4869 121.817 45.7193 123.517 42.8799 125.078C41.8119 125.663 41.3754 126.439 41.3908 127.676C41.4473 132.688 41.4113 137.704 41.4113 142.983C38.7875 137.971 39.5064 132.58 38.9313 126.962C35.4654 128.949 32.2305 130.803 29.006 132.662C28.6773 132.852 28.3898 133.124 28.0509 133.293C18.6185 138.079 15.1423 146.767 12.9704 156.313C12.8882 156.682 12.8266 157.062 12.7393 157.432C12.7136 157.55 12.6263 157.653 12.4723 157.925H12.4877ZM42.7977 88.4208C35.0187 103.445 28.1639 118.829 22.0536 134.516C27.7685 130.952 33.4218 127.46 39.0135 123.881C39.5012 123.568 39.7888 122.659 39.8401 122.002C40.2458 116.487 40.4666 110.962 40.9492 105.453C41.4473 99.7635 42.1713 94.0999 42.7977 88.426V88.4208Z" fill="white"/>
<path d="M146.487 105.438C147.904 105.638 148.921 105.776 150.118 105.946C148.86 108.092 148.11 108 146.487 105.438Z" fill="white"/>
</g>
<defs>
<clipPath id="clip0_2120_2754">
<rect width="236" height="209" fill="white"/>
</clipPath>
</defs>
</svg>
